<svg width="106" height="38" viewBox="0 0 106 38" fill="none" xmlns="http://www.w3.org/2000/svg">
<path fill-rule="evenodd" clip-rule="evenodd" d="M0.5 27.5912V13.0443C0.502976 12.5966 0.680673 12.1682 0.99435 11.8526C1.14504 11.6888 1.32813 11.559 1.53169 11.4717C1.73526 11.3844 1.95472 11.3414 2.17576 11.3458H3.78449V17.3914H10.3451V11.3458H13.661V27.5912H10.3451V20.3665H3.78659V27.5912H0.5Z" fill="#DA2128"/>
<path fill-rule="evenodd" clip-rule="evenodd" d="M18.5398 24.669H20.6534C22.1742 24.669 23.3011 24.2619 24.0196 23.4434C24.7066 22.6842 25.0669 21.361 25.0669 19.4695C25.0669 17.6395 24.7444 16.3205 24.0803 15.4405C23.4519 14.5922 22.4611 14.1554 21.0786 14.1554H18.5398V24.669ZM15.2951 27.5911V13.0443C15.2915 12.8227 15.3325 12.6028 15.4157 12.3979C15.4989 12.193 15.6225 12.0074 15.779 11.8525C15.9357 11.6884 16.124 11.5585 16.3323 11.471C16.5405 11.3834 16.7643 11.3401 16.9898 11.3436H21.0744C23.5294 11.3436 25.3937 12.0285 26.6149 13.3305C27.8445 14.7301 28.4457 16.7743 28.4457 19.4801C28.4683 20.8148 28.2431 22.1419 27.7817 23.3925C27.2789 24.5991 26.6212 25.513 25.8043 26.1492C25.155 26.6749 24.4066 27.061 23.6048 27.2837C22.8382 27.5148 21.7196 27.6039 20.18 27.6039L15.2951 27.5911Z" fill="#DA2128"/>
<path fill-rule="evenodd" clip-rule="evenodd" d="M33.2362 24.669H37.1575C38.0205 24.669 38.695 24.5142 39.1726 24.1495C39.5915 23.8293 39.8157 23.3012 39.8157 22.5336C39.8157 21.7978 39.5936 21.238 39.1726 20.886C38.7537 20.57 38.0834 20.4194 37.1198 20.4194H33.2446L33.2362 24.669ZM33.2362 17.6288H37.0067C37.8299 17.6288 38.4017 17.4889 38.7935 17.2047C39.1852 16.9205 39.3527 16.4837 39.3527 15.8836C39.3527 15.2835 39.1621 14.8233 38.7935 14.5625C38.473 14.3165 37.8529 14.166 36.9711 14.166H33.2362V17.6288ZM30.0648 27.5953V13.0442C30.06 12.8219 30.1011 12.6011 30.1855 12.3959C30.2699 12.1906 30.3958 12.0055 30.555 11.8525C30.7054 11.6905 30.8872 11.5617 31.0891 11.4742C31.2909 11.3866 31.5084 11.3421 31.728 11.3435H37.6267C39.2648 11.3435 40.5383 11.6977 41.3972 12.4038C42.256 13.1099 42.6959 14.1723 42.6959 15.4574C42.7249 16.1853 42.5475 16.9064 42.1848 17.5355C41.8358 18.0884 41.339 18.5296 40.752 18.8078C41.4955 19.1173 42.1385 19.6315 42.6079 20.2922C43.008 20.9008 43.2196 21.6875 43.2196 22.6693C43.2196 24.23 42.7252 25.4557 41.726 26.3442C40.6933 27.1924 39.248 27.6165 37.39 27.6165L30.0648 27.5953Z" fill="#5A5A5D"/>
<path fill-rule="evenodd" clip-rule="evenodd" d="M68.5923 27.5911H66.9165C66.488 27.6081 66.0697 27.4561 65.7497 27.167C65.5986 27.0146 65.4805 26.832 65.403 26.6308C65.3254 26.4296 65.2902 26.2143 65.2994 25.9986V19.2447C65.2994 18.4876 65.0711 17.9342 64.6039 17.5885C64.1573 17.2559 63.6168 17.0775 63.0622 17.0796C62.5127 17.0722 61.9766 17.2514 61.5394 17.5885C61.1016 17.9342 60.8837 18.4876 60.8837 19.2447V27.5911H57.5322V19.8957C57.5322 17.7624 58.1041 16.3311 59.208 15.608C60.3261 14.8766 61.6206 14.4689 62.9512 14.4289C64.3077 14.4182 65.6409 14.785 66.8055 15.4892C67.9743 16.242 68.5818 17.6903 68.5818 19.8914L68.5923 27.5911Z" fill="#5A5A5D"/>
<path fill-rule="evenodd" clip-rule="evenodd" d="M52.7084 20.9941C52.0894 21.2624 51.4442 21.4635 50.7834 21.5942L49.6585 21.8381C49.0678 22.0035 48.6258 22.207 48.3786 22.4594C48.1656 22.7632 48.0461 23.124 48.0351 23.4963C48.0239 23.707 48.0567 23.9177 48.1314 24.1147C48.2061 24.3116 48.3211 24.4904 48.4687 24.6393C48.7682 24.9044 49.1935 25.0231 49.759 25.0231C50.6702 25.0231 51.3971 24.7771 51.9103 24.2618C52.4235 23.7466 52.7063 23.0553 52.7063 22.1668L52.7084 20.9941ZM53.5023 26.4227C52.2455 27.4427 50.8232 27.5911 49.271 27.5911C48.169 27.6107 47.0867 27.2945 46.1645 26.6835C45.2722 26.0473 44.8428 25.0231 44.8428 23.596C44.8428 22.2643 45.2366 21.3185 46.0535 20.7481C46.8704 20.1777 47.8885 19.796 49.1369 19.603C49.3287 19.6001 49.5197 19.5766 49.7067 19.5331C49.9692 19.4764 50.2351 19.4375 50.5027 19.4164C51.9396 19.2213 52.6644 18.7972 52.6644 18.178C52.6644 17.6945 52.4047 17.3913 51.9145 17.2556C51.4565 17.1161 50.9809 17.0446 50.5027 17.0435C50.0865 17.0343 49.6721 17.1011 49.2794 17.2408C49.1025 17.2895 48.9382 17.3768 48.7982 17.4966C48.6581 17.6164 48.5457 17.7657 48.4687 17.9342H45.1884C45.3069 16.9698 45.798 16.0922 46.5541 15.4934C47.4486 14.7873 48.7075 14.4077 50.3497 14.4077C52.1889 14.4077 53.5672 14.7216 54.4847 15.3217C54.9318 15.5975 55.2987 15.9882 55.5481 16.4542C55.7976 16.9202 55.9207 17.4447 55.9049 17.9745V22.3173C55.9049 23.5896 55.6682 24.5672 55.1822 25.2861C54.5769 25.8735 54.1726 25.9562 53.5065 26.4184" fill="#5A5A5D"/>
<path fill-rule="evenodd" clip-rule="evenodd" d="M55.9049 27.6441H54.4386C54.2433 27.6523 54.0488 27.616 53.8693 27.5378C53.6898 27.4596 53.53 27.3416 53.4017 27.1924C53.1335 26.8724 52.9931 26.4625 53.0079 26.0431V22.207H55.9049V27.6441Z" fill="#5A5A5D"/>
<path fill-rule="evenodd" clip-rule="evenodd" d="M73.4544 15.0333V19.444L77.3861 14.4078H81.2634L76.8813 19.8427L81.32 27.5911H77.4406L75.172 23.3501C74.7007 22.487 74.2985 22.1202 73.9571 22.2643C73.6157 22.4085 73.4544 22.5845 73.4544 22.8305V27.5911H70.2139V11.3351H71.8896C72.0996 11.3302 72.3081 11.3711 72.501 11.4549C72.694 11.5386 72.867 11.6634 73.0082 11.8207C73.2933 12.1047 73.4566 12.4909 73.4628 12.8958L73.4544 15.0333Z" fill="#5A5A5D"/>
<path fill-rule="evenodd" clip-rule="evenodd" d="M3.79918 31.4675V32.127H3.32997C3.04431 32.1251 2.7606 32.1747 2.49209 32.2733C2.24657 32.3645 2.01996 32.5011 1.82388 32.6762C1.63533 32.855 1.4917 33.0767 1.40494 33.323C1.28864 33.5593 1.22975 33.8203 1.23317 34.0843C1.22134 34.4727 1.31868 34.8566 1.51386 35.1912C1.69356 35.4587 1.92965 35.6825 2.20511 35.8464C2.46301 35.9856 2.75075 36.0584 3.04299 36.0585H3.79709V36.7095H3.04299C2.59037 36.7243 2.14332 36.6049 1.75685 36.366C1.36731 36.1509 1.05004 35.8231 0.845653 35.4245C0.617084 35.0158 0.497941 34.5539 0.500027 34.0843C0.506897 33.6457 0.63222 33.2175 0.86241 32.8459C1.08285 32.4326 1.412 32.0891 1.8134 31.8535C2.24611 31.5923 2.74252 31.4593 3.24618 31.4696L3.79918 31.4675Z" fill="#5A5A5D"/>
<path fill-rule="evenodd" clip-rule="evenodd" d="M8.21054 36.7179H7.54862V34.6949C7.5567 34.4978 7.5024 34.3031 7.39361 34.1394C7.29412 33.9812 7.14734 33.8594 6.97467 33.7916C6.79247 33.7052 6.59354 33.661 6.39234 33.6622C6.16969 33.659 5.95105 33.7224 5.76393 33.8446C5.58236 33.9507 5.43641 34.1095 5.34499 34.3005C5.2587 34.5011 5.21516 34.7179 5.21721 34.9367C5.212 35.1529 5.26563 35.3663 5.37222 35.5538C5.46407 35.7417 5.61017 35.897 5.79116 35.9991C5.9735 36.1119 6.18285 36.172 6.39653 36.1729C6.57482 36.167 6.74932 36.1193 6.90633 36.0335C7.06334 35.9478 7.19859 35.8264 7.30144 35.6789V36.4507C7.16443 36.5516 7.01518 36.6343 6.85737 36.6967C6.6931 36.7788 6.51006 36.8147 6.32741 36.8006C6.08508 36.794 5.84622 36.7408 5.62359 36.6437C5.40474 36.5505 5.20723 36.4126 5.04335 36.2387C4.87942 36.0539 4.75402 35.8375 4.67469 35.6025C4.58247 35.378 4.5341 35.1374 4.53225 34.8943C4.53079 34.563 4.61453 34.2371 4.77523 33.9485C4.91605 33.6673 5.13916 33.437 5.41411 33.289C5.71679 33.123 6.05648 33.0383 6.40072 33.043C6.65954 33.045 6.91659 33.0864 7.16319 33.166C7.36767 33.2454 7.55693 33.3602 7.72248 33.5053C7.88394 33.6547 8.00813 33.8408 8.08486 34.0482C8.16807 34.2763 8.21062 34.5175 8.21054 34.7607V36.7179Z" fill="#5A5A5D"/>
<path fill-rule="evenodd" clip-rule="evenodd" d="M9.91141 36.7179H9.25576V34.2539C9.24708 34.0447 9.3027 33.838 9.41496 33.6622C9.53738 33.4754 9.69903 33.3183 9.88836 33.2021C10.0899 33.1015 10.3109 33.0472 10.5356 33.043C10.7409 33.0481 10.9437 33.0897 11.1347 33.166C11.3084 33.2644 11.4619 33.3954 11.5872 33.552C11.6918 33.3836 11.8424 33.2495 12.0208 33.166C12.2151 33.0862 12.4227 33.0445 12.6324 33.043C12.8042 33.0401 12.9747 33.0733 13.1331 33.1406C13.2827 33.1966 13.4185 33.2849 13.5311 33.3993C13.6538 33.5027 13.7459 33.6385 13.7971 33.7916C13.8678 33.935 13.903 34.0936 13.8997 34.2539V36.7179H13.2629V34.4256C13.2688 34.2215 13.2036 34.0218 13.0786 33.8616C13.0189 33.7976 12.9468 33.7468 12.8667 33.7125C12.7867 33.6782 12.7005 33.6611 12.6136 33.6622C12.1339 33.6622 11.8972 33.9485 11.8972 34.521V36.7179H11.2394V34.521C11.2394 33.9485 11.03 33.6622 10.5587 33.6622C10.4707 33.6602 10.3833 33.6769 10.3021 33.7112C10.2209 33.7456 10.1478 33.7968 10.0874 33.8616C9.95806 34.019 9.89489 34.2215 9.91141 34.4256V36.7179Z" fill="#5A5A5D"/>
<path fill-rule="evenodd" clip-rule="evenodd" d="M18.8752 36.718H18.207V31.4675H18.8752V34.4363H19.1245C19.401 34.4363 19.5812 34.3705 19.6901 34.1691L20.3185 33.1088H21.0663L20.5845 33.921C20.5037 34.0673 20.4149 34.2089 20.3185 34.3451C20.2526 34.4537 20.1543 34.5384 20.0378 34.5868C20.2702 34.626 20.4827 34.7433 20.6411 34.9198C20.7915 35.1338 20.8654 35.3933 20.8505 35.6556V36.7159H20.1907V35.7234C20.1958 35.6373 20.184 35.5509 20.156 35.4694C20.128 35.3879 20.0842 35.3128 20.0273 35.2484C19.9731 35.1921 19.9078 35.1478 19.8357 35.1186C19.7635 35.0894 19.6861 35.0758 19.6084 35.0788H18.8752V36.718Z" fill="#5A5A5D"/>
<path fill-rule="evenodd" clip-rule="evenodd" d="M25.3225 34.1754L22.9011 35.5262L22.6204 35.0067L24.3967 34.0185C24.3035 33.9027 24.1843 33.8111 24.049 33.7513C23.9054 33.6892 23.7505 33.6588 23.5944 33.6623C23.4378 33.6583 23.2822 33.688 23.1377 33.7494C22.9933 33.8108 22.8634 33.9025 22.7565 34.0185C22.6406 34.137 22.55 34.2783 22.4902 34.4337C22.4304 34.5891 22.4027 34.7552 22.4088 34.9219C22.4062 35.0852 22.4356 35.2474 22.4952 35.3992C22.5549 35.551 22.6437 35.6893 22.7565 35.8061C22.8616 35.9246 22.9911 36.0183 23.1359 36.0806C23.2807 36.1429 23.4372 36.1723 23.5944 36.1666C23.7409 36.1775 23.8881 36.1571 24.0263 36.1067C24.1645 36.0563 24.2907 35.977 24.3967 35.874C24.6097 35.6386 24.7458 35.3424 24.7863 35.0258L25.4503 35.1063C25.4309 35.4155 25.3312 35.714 25.1613 35.9715C25.0026 36.2306 24.7745 36.4387 24.5035 36.5716C24.221 36.7133 23.9097 36.7859 23.5944 36.7837C23.3499 36.7752 23.1081 36.728 22.878 36.6437C22.6599 36.5522 22.4603 36.4206 22.2894 36.2557C22.121 36.0802 21.9798 35.8801 21.8705 35.6619C21.7811 35.4213 21.7357 35.1662 21.7364 34.9091C21.7341 34.6526 21.7796 34.3979 21.8705 34.1585C21.9663 33.9311 22.1092 33.7272 22.2894 33.5605C22.4596 33.3897 22.659 33.2517 22.878 33.1533C23.1083 33.0718 23.3505 33.0302 23.5944 33.0303C23.9644 33.0236 24.3283 33.126 24.6418 33.3251C24.945 33.5363 25.1825 33.8305 25.3267 34.1733" fill="#5A5A5D"/>
<path fill-rule="evenodd" clip-rule="evenodd" d="M22.6055 32.7462L23.236 31.8513H23.812L24.4593 32.7462H23.944L23.5229 32.1736L23.0935 32.7462H22.6055Z" fill="#5A5A5D"/>
<path fill-rule="evenodd" clip-rule="evenodd" d="M24.2812 32.3326L24.851 31.425H25.5255L24.7065 32.3326H24.2812Z" fill="#5A5A5D"/>
<path fill-rule="evenodd" clip-rule="evenodd" d="M28.4222 33.1235V33.7597H27.1339V35.6491C27.1263 35.7764 27.1659 35.9019 27.245 36.0011C27.3562 36.0715 27.4872 36.1028 27.6178 36.0902H28.4222V36.7263H27.5215C27.3775 36.7352 27.2335 36.7114 27.0997 36.6567C26.966 36.6021 26.846 36.5179 26.7485 36.4104C26.5548 36.1722 26.4542 35.8704 26.4657 35.5622V32.2096H27.1298V33.1257L28.4222 33.1235Z" fill="#5A5A5D"/>
<path d="M33.3677 31.4675H32.71V36.718H33.3677V31.4675Z" fill="#5A5A5D"/>
<path fill-rule="evenodd" clip-rule="evenodd" d="M35.9106 37.4686C35.9099 37.4249 35.9182 37.3815 35.9352 37.3413C35.9522 37.3011 35.9773 37.265 36.0091 37.2353C36.0384 37.2021 36.0753 37.1766 36.1165 37.1611C36.1578 37.1456 36.2022 37.1405 36.2458 37.1463C36.2902 37.143 36.3348 37.1492 36.3767 37.1645C36.4186 37.1799 36.4568 37.204 36.4888 37.2353C36.5407 37.3013 36.5661 37.3846 36.56 37.4686C36.5644 37.5512 36.5391 37.6325 36.4888 37.6976C36.4585 37.7318 36.4208 37.7584 36.3786 37.7753C36.3365 37.7922 36.291 37.799 36.2458 37.7952C36.2014 37.8014 36.1561 37.7956 36.1145 37.7785C36.073 37.7614 36.0366 37.7335 36.0091 37.6976C35.9773 37.6689 35.9521 37.6335 35.9351 37.594C35.9181 37.5545 35.9098 37.5117 35.9106 37.4686ZM35.1356 34.924C35.1319 35.2508 35.2509 35.5669 35.4687 35.8082C35.5783 35.9254 35.7111 36.018 35.8583 36.0801C36.0055 36.1422 36.1639 36.1724 36.3233 36.1687C36.4803 36.1725 36.6362 36.1423 36.7807 36.0802C36.9252 36.018 37.055 35.9253 37.1612 35.8082C37.27 35.6901 37.354 35.5508 37.408 35.3988C37.462 35.2468 37.485 35.0852 37.4754 34.924C37.4892 34.7595 37.4683 34.5939 37.4141 34.4381C37.3599 34.2824 37.2737 34.1401 37.1612 34.0206C37.0544 33.9045 36.9245 33.8128 36.7801 33.7513C36.6356 33.6899 36.4799 33.6603 36.3233 33.6644C36.1642 33.6604 36.0061 33.69 35.8589 33.7514C35.7118 33.8127 35.5789 33.9044 35.4687 34.0206C35.3569 34.1414 35.2699 34.2834 35.2127 34.4385C35.1555 34.5936 35.1293 34.7586 35.1356 34.924ZM34.4485 34.924C34.4457 34.6639 34.5031 34.4068 34.6161 34.1733C34.7007 33.9436 34.8395 33.7383 35.0204 33.5753C35.1951 33.4052 35.3978 33.2674 35.6195 33.1682C35.8461 33.0893 36.0837 33.0478 36.3233 33.0452C36.5383 33.0487 36.7509 33.0903 36.9517 33.1682C37.137 33.2205 37.3101 33.3099 37.4607 33.4311C37.6089 33.5541 37.7399 33.6967 37.8503 33.8552C37.9648 33.854 38.0775 33.8257 38.1792 33.7725C38.2147 33.7506 38.2454 33.7216 38.2695 33.6874C38.2936 33.6531 38.3107 33.6143 38.3196 33.5732H38.1583V33.0536H38.5772V33.5371C38.584 33.6172 38.5713 33.6977 38.5403 33.7716C38.5092 33.8455 38.4608 33.9106 38.3991 33.9612C38.2822 34.0523 38.1381 34.1001 37.9907 34.0969C38.0517 34.2137 38.0962 34.3387 38.1227 34.468C38.1645 34.6199 38.1856 34.7769 38.1855 34.9346C38.1855 35.1962 38.1245 35.4541 38.0074 35.6874C37.9248 35.9121 37.793 36.1151 37.622 36.2811C37.4477 36.4468 37.2446 36.5783 37.0229 36.6692C36.7962 36.7499 36.5591 36.797 36.3191 36.8091C36.0731 36.7958 35.83 36.7487 35.5964 36.6692C35.3795 36.5801 35.1823 36.4482 35.0162 36.2811C34.841 36.1148 34.7031 35.9123 34.6119 35.6874C34.5005 35.4525 34.4432 35.1951 34.4444 34.9346" fill="#5A5A5D"/>
<path fill-rule="evenodd" clip-rule="evenodd" d="M40.1404 36.7179H39.4785V33.1236H40.1404V36.7179ZM39.4785 32.3093C39.4818 32.2229 39.5135 32.14 39.5686 32.0739C39.6 32.0427 39.6374 32.0183 39.6785 32.0023C39.7195 31.9862 39.7634 31.9788 39.8074 31.9806C39.8941 31.9811 39.9773 32.0156 40.0394 32.0769C40.1015 32.1382 40.1377 32.2215 40.1404 32.3093C40.1337 32.3983 40.0967 32.4823 40.0357 32.5468C39.9744 32.6066 39.8926 32.6401 39.8074 32.6401C39.7193 32.6389 39.6346 32.6058 39.5686 32.5468C39.5179 32.4773 39.4868 32.3952 39.4785 32.3093Z" fill="#5A5A5D"/>
<path fill-rule="evenodd" clip-rule="evenodd" d="M45.3136 36.7179H44.6496V33.1236H45.3136V36.7179ZM44.4443 32.6762L44.9973 31.7771H45.6781L44.8528 32.6762H44.4443Z" fill="#5A5A5D"/>
<path fill-rule="evenodd" clip-rule="evenodd" d="M49.1517 33.1237V33.7598H48.6197C48.4147 33.7564 48.2117 33.8014 48.0269 33.8913C47.8356 33.9848 47.6749 34.132 47.5639 34.3154C47.4485 34.5011 47.3901 34.7174 47.3964 34.9367C47.3892 35.0998 47.4193 35.2623 47.4843 35.4116C47.5494 35.5609 47.6476 35.693 47.7713 35.7977C48.0081 35.9997 48.3101 36.1062 48.6197 36.0967H49.1517V36.7328H48.5086C48.2172 36.7265 47.9309 36.654 47.6708 36.5208C47.3918 36.37 47.1542 36.1514 46.9795 35.8846C46.8283 35.6316 46.7388 35.3457 46.7184 35.0507C46.698 34.7557 46.7473 34.46 46.8622 34.1882C46.9691 33.9678 47.1163 33.77 47.2958 33.605C47.4655 33.447 47.6681 33.3296 47.8886 33.2615C48.0886 33.1805 48.3017 33.1381 48.517 33.1364L49.1517 33.1237Z" fill="#5A5A5D"/>
<path fill-rule="evenodd" clip-rule="evenodd" d="M50.6683 36.718H49.998V31.4675H50.6683V33.429C50.7773 33.3065 50.9109 33.2089 51.0601 33.1428C51.2257 33.0726 51.4042 33.0386 51.5837 33.0431C52.564 33.0431 53.0731 33.5732 53.0731 34.6186V36.718H52.4216V34.6186C52.4216 33.9825 52.1263 33.6623 51.5335 33.6623C51.416 33.661 51.2997 33.686 51.1929 33.7355C51.0861 33.785 50.9914 33.8577 50.9155 33.9486C50.8298 34.0362 50.7635 34.1412 50.7209 34.2567C50.6783 34.3723 50.6604 34.4956 50.6683 34.6186V36.718Z" fill="#5A5A5D"/>
<path fill-rule="evenodd" clip-rule="evenodd" d="M59.7904 33.1237V33.7598H59.2834C59.0705 33.7577 58.8596 33.8026 58.6655 33.8913C58.4853 33.9936 58.3328 34.1392 58.2214 34.3154C58.0824 34.5476 58.0249 34.8206 58.0583 35.0901C58.0918 35.3595 58.2142 35.6096 58.4058 35.7998C58.653 36.0037 58.9648 36.1099 59.2834 36.0988H59.7904V36.7349H59.1515C58.8603 36.7266 58.5744 36.6542 58.3136 36.5229C58.0367 36.3708 57.8008 36.1524 57.6265 35.8867C57.4511 35.601 57.3589 35.271 57.3605 34.9346C57.3507 34.6764 57.4047 34.4199 57.5176 34.1882C57.6172 33.9673 57.7597 33.769 57.9366 33.605C58.104 33.4443 58.3042 33.3227 58.5231 33.2488C58.7226 33.1666 58.936 33.1241 59.1515 33.1237H59.7904Z" fill="#5A5A5D"/>
<path fill-rule="evenodd" clip-rule="evenodd" d="M64.1791 36.7179H63.536V34.695C63.5356 34.4974 63.4781 34.3042 63.3705 34.1394C63.2577 33.9853 63.1056 33.8651 62.9306 33.7916C62.7502 33.7022 62.5513 33.6578 62.3504 33.6623C62.1282 33.6621 61.9104 33.7253 61.722 33.8446C61.5398 33.95 61.3937 34.109 61.3031 34.3005C61.2092 34.4994 61.1585 34.7163 61.1543 34.9367C61.1577 35.1523 61.2123 35.364 61.3135 35.5538C61.408 35.7337 61.5456 35.8868 61.7136 35.9991C61.906 36.108 62.1217 36.1677 62.342 36.173C62.5188 36.1682 62.692 36.1209 62.8471 36.035C63.0023 35.9491 63.135 35.827 63.2344 35.6789V36.4508C63.103 36.5592 62.9532 36.6426 62.7924 36.6967C62.6323 36.7824 62.451 36.8185 62.2708 36.8006C62.0346 36.7941 61.8019 36.7408 61.5858 36.6437C61.3654 36.5548 61.1682 36.4155 61.0098 36.2366C60.8396 36.0579 60.7158 35.8394 60.6495 35.6004C60.5507 35.3779 60.5014 35.1361 60.505 34.8922C60.4932 34.5594 60.5785 34.2305 60.7501 33.9464C60.8833 33.6577 61.1113 33.4246 61.3952 33.2869C61.6865 33.1189 62.0173 33.0339 62.3525 33.0409C62.6109 33.0397 62.8677 33.0813 63.1129 33.1639C63.3255 33.2379 63.5219 33.3532 63.691 33.5032C63.8466 33.6564 63.968 33.8415 64.0471 34.0461C64.1359 34.2713 64.1807 34.5118 64.1791 34.7543V36.7179Z" fill="#5A5A5D"/>
<path fill-rule="evenodd" clip-rule="evenodd" d="M65.7475 34.9218C65.743 35.2484 65.8613 35.5645 66.0785 35.806C66.1859 35.9215 66.3158 36.0132 66.4601 36.0752C66.6043 36.1372 66.7596 36.1683 66.9163 36.1665C67.0728 36.167 67.2278 36.1352 67.3718 36.0733C67.5158 36.0113 67.6459 35.9204 67.7542 35.806C67.9742 35.5659 68.0942 35.2492 68.0894 34.9218C68.0962 34.7561 68.07 34.5908 68.0124 34.4356C67.9549 34.2804 67.8671 34.1386 67.7542 34.0184C67.6454 33.905 67.5151 33.815 67.3712 33.7538C67.2272 33.6926 67.0725 33.6614 66.9163 33.6622C66.76 33.6601 66.6049 33.6906 66.4607 33.7519C66.3166 33.8132 66.1864 33.9039 66.0785 34.0184C65.967 34.1394 65.8804 34.2815 65.8236 34.4365C65.7668 34.5916 65.7409 34.7565 65.7475 34.9218ZM65.0688 34.9218C65.0633 34.6708 65.1092 34.4214 65.2037 34.1892C65.2981 33.9571 65.4391 33.7473 65.6176 33.5731C65.7982 33.4086 66.0014 33.2714 66.2209 33.166C66.4461 33.0874 66.6823 33.0459 66.9205 33.043C67.1616 33.0437 67.4009 33.0853 67.6285 33.166C67.8477 33.2628 68.0489 33.3969 68.2234 33.5625C68.4004 33.734 68.5396 33.9414 68.6319 34.1711C68.7342 34.4078 68.7869 34.6634 68.7869 34.9218C68.7862 35.1807 68.7335 35.4369 68.6319 35.6746C68.5378 35.8989 68.3987 36.1011 68.2234 36.2683C68.0564 36.4392 67.8549 36.5716 67.6327 36.6564C67.404 36.7405 67.1637 36.7877 66.9205 36.7963C66.6818 36.7844 66.4461 36.7372 66.2209 36.6564C65.9982 36.5651 65.7938 36.4336 65.6176 36.2683C65.4503 36.0948 65.3129 35.8941 65.2112 35.6746C65.114 35.436 65.0655 35.1799 65.0688 34.9218Z" fill="#5A5A5D"/>
<path fill-rule="evenodd" clip-rule="evenodd" d="M73.7434 36.7179H73.0793V34.6185C73.0745 34.3304 73.1423 34.0458 73.2762 33.7915C73.408 33.5627 73.5993 33.3749 73.8293 33.2487C74.0634 33.1052 74.3328 33.0317 74.6064 33.0366C74.8866 33.0319 75.1627 33.1053 75.4045 33.2487C75.634 33.3718 75.8227 33.5606 75.947 33.7915C76.0817 34.0456 76.1502 34.3302 76.146 34.6185V36.7179H75.4778V34.6185C75.4887 34.4506 75.4485 34.2833 75.3626 34.1393C75.2941 33.9924 75.1821 33.8709 75.0421 33.7915C74.9125 33.706 74.761 33.6611 74.6064 33.6622C74.45 33.6627 74.2969 33.7075 74.1644 33.7915C74.0333 33.8792 73.926 33.9988 73.8523 34.1393C73.7684 34.284 73.7304 34.4513 73.7434 34.6185V36.7179Z" fill="#5A5A5D"/>
<path fill-rule="evenodd" clip-rule="evenodd" d="M77.8426 36.718H77.166V31.4675H77.8342V33.429C77.9457 33.3094 78.0786 33.2122 78.2259 33.1428C78.3949 33.0739 78.5758 33.0401 78.758 33.0431C79.7446 33.0431 80.241 33.5732 80.241 34.6186V36.718H79.5959V34.6186C79.5959 33.9825 79.3089 33.6623 78.7329 33.6623C78.6135 33.6584 78.4948 33.6821 78.3859 33.7317C78.277 33.7813 78.1807 33.8555 78.1044 33.9486C78.0153 34.0346 77.9453 34.1388 77.8991 34.2544C77.8528 34.3699 77.8315 34.4941 77.8363 34.6186L77.8426 36.718Z" fill="#5A5A5D"/>
<path fill-rule="evenodd" clip-rule="evenodd" d="M84.8178 36.7179H84.1663V34.6949C84.1701 34.4955 84.109 34.3002 83.9925 34.1394C83.8863 33.9814 83.735 33.8601 83.5589 33.7916C83.3816 33.7038 83.1864 33.6595 82.9891 33.6622C82.7667 33.6607 82.5485 33.724 82.3607 33.8446C82.1818 33.9508 82.0392 34.1099 81.9522 34.3005C81.8505 34.4965 81.7994 34.7153 81.8035 34.9367C81.8002 35.1519 81.8514 35.3643 81.9522 35.5538C82.0493 35.7346 82.1898 35.8877 82.3607 35.9991C82.5471 36.1095 82.7585 36.1693 82.9744 36.173C83.1541 36.1667 83.33 36.1189 83.4887 36.0333C83.6473 35.9476 83.7846 35.8264 83.8898 35.6789V36.4507C83.7504 36.5514 83.5991 36.6341 83.4395 36.6967C83.2717 36.7795 83.0851 36.8154 82.899 36.8006C82.659 36.792 82.4226 36.7388 82.2015 36.6437C81.988 36.554 81.7986 36.4145 81.6485 36.2366C81.4697 36.0639 81.3433 35.8433 81.284 35.6004C81.1826 35.3789 81.1345 35.1361 81.1437 34.8922C81.141 34.5636 81.2164 34.2392 81.3636 33.9464C81.5076 33.6668 81.7308 33.4372 82.0046 33.2869C82.3114 33.1198 82.6554 33.0351 83.0038 33.0409C83.2578 33.0428 83.51 33.0843 83.7516 33.1639C83.9616 33.2423 84.1565 33.3571 84.3276 33.5032C84.4846 33.6512 84.6002 33.8384 84.6628 34.0461C84.7652 34.269 84.8154 34.5128 84.8094 34.7586L84.8178 36.7179Z" fill="#5A5A5D"/>
<path fill-rule="evenodd" clip-rule="evenodd" d="M82.0693 32.7758L82.7103 31.8724H83.2885L83.9169 32.7758H83.4162L82.9889 32.1905L82.5742 32.7758H82.0693Z" fill="#5A5A5D"/>
<path fill-rule="evenodd" clip-rule="evenodd" d="M83.75 32.3326L84.3156 31.425H84.9838L84.1752 32.3326H83.75Z" fill="#5A5A5D"/>
<path fill-rule="evenodd" clip-rule="evenodd" d="M87.8718 33.1235V33.7597H86.5752V35.6491C86.5678 35.7148 86.5765 35.7813 86.6006 35.8427C86.6248 35.9041 86.6635 35.9585 86.7134 36.0011C86.817 36.073 86.9427 36.1046 87.0674 36.0902H87.8718V36.7263H86.9899C86.8453 36.7358 86.7004 36.7123 86.566 36.6577C86.4315 36.603 86.3108 36.5185 86.2128 36.4104C86.1118 36.2955 86.0347 36.1611 85.9862 36.0154C85.9376 35.8697 85.9185 35.7155 85.93 35.5622V32.2096H86.5752V33.1257L87.8718 33.1235Z" fill="#5A5A5D"/>
<path d="M104.169 5.44954C98.1827 7.76412 91.8643 9.10769 85.4531 9.42937C85.7726 14.2602 88.942 19.5479 91.5352 19.5479C98.1059 19.5479 103.386 8.60337 104.501 6.26302C104.927 5.39322 104.601 5.26181 104.169 5.44954Z" fill="url(#paint0_linear_8505_193582)"/>
<path d="M89.0359 7.38935C85.904 6.26299 86.5304 0.868933 86.4615 0.505992C86.1483 -0.676695 81.4004 3.49713 81.4004 6.33182C81.4004 7.51451 82.1708 7.88996 83.4361 7.92751C85.3095 7.91525 87.1785 7.7457 89.0234 7.42064C89.0672 7.4269 89.061 7.39561 89.0359 7.38935Z" fill="url(#paint1_linear_8505_193582)"/>
<defs>
<linearGradient id="paint0_linear_8505_193582" x1="83.2008" y1="10.8978" x2="105.865" y2="14.8972" gradientUnits="userSpaceOnUse">
<stop stop-color="#F9A51A"/>
<stop offset="0.5" stop-color="#FFDC00"/>
<stop offset="1" stop-color="#FFDC00"/>
</linearGradient>
<linearGradient id="paint1_linear_8505_193582" x1="87.977" y1="9.17277" x2="83.3693" y2="-0.717716" gradientUnits="userSpaceOnUse">
<stop stop-color="#F9A51A"/>
<stop offset="0.2" stop-color="#FFC10E"/>
<stop offset="0.45" stop-color="#FFDC00"/>
<stop offset="1" stop-color="#FFDC00"/>
</linearGradient>
</defs>
</svg>
