<svg width="105" height="38" viewBox="0 0 105 38" fill="none" xmlns="http://www.w3.org/2000/svg">
<path fill-rule="evenodd" clip-rule="evenodd" d="M4.57764e-05 27.5911V13.0442C0.00302223 12.5965 0.180719 12.1681 0.494395 11.8525C0.645082 11.6887 0.828176 11.5589 1.03174 11.4716C1.2353 11.3843 1.45476 11.3413 1.67581 11.3457H3.28454V17.3913H9.84515V11.3457H13.1611V27.5911H9.84515V20.3664H3.28663V27.5911H4.57764e-05Z" fill="#DA2128"/>
<path fill-rule="evenodd" clip-rule="evenodd" d="M18.0396 24.669H20.1532C21.6739 24.669 22.8009 24.2619 23.5194 23.4433C24.2064 22.6842 24.5667 21.361 24.5667 19.4694C24.5667 17.6394 24.2441 16.3204 23.5801 15.4404C22.9517 14.5922 21.9609 14.1554 20.5784 14.1554H18.0396V24.669ZM14.7949 27.5911V13.0442C14.7913 12.8227 14.8323 12.6028 14.9155 12.3978C14.9987 12.1929 15.1223 12.0074 15.2788 11.8525C15.4355 11.6883 15.6238 11.5585 15.832 11.4709C16.0403 11.3834 16.2641 11.34 16.4895 11.3435H20.5742C23.0292 11.3435 24.8935 12.0285 26.1147 13.3305C27.3443 14.73 27.9455 16.7742 27.9455 19.48C27.9681 20.8148 27.7429 22.1419 27.2814 23.3924C26.7787 24.599 26.121 25.513 25.304 26.1491C24.6548 26.6749 23.9064 27.0609 23.1046 27.2836C22.3379 27.5148 21.2194 27.6038 19.6798 27.6038L14.7949 27.5911Z" fill="#DA2128"/>
<path fill-rule="evenodd" clip-rule="evenodd" d="M32.736 24.669H36.6573C37.5203 24.669 38.1948 24.5142 38.6724 24.1494C39.0914 23.8292 39.3155 23.3012 39.3155 22.5336C39.3155 21.7978 39.0935 21.2379 38.6724 20.8859C38.2535 20.57 37.5832 20.4194 36.6196 20.4194H32.7444L32.736 24.669ZM32.736 17.6288H36.5065C37.3297 17.6288 37.9016 17.4888 38.2933 17.2047C38.685 16.9205 38.8526 16.4837 38.8526 15.8836C38.8526 15.2835 38.662 14.8233 38.2933 14.5625C37.9728 14.3165 37.3528 14.166 36.4709 14.166H32.736V17.6288ZM29.5647 27.5953V13.0442C29.5598 12.8219 29.6009 12.6011 29.6853 12.3959C29.7697 12.1906 29.8956 12.0055 30.0548 11.8525C30.2053 11.6905 30.3871 11.5617 30.5889 11.4741C30.7908 11.3866 31.0083 11.3421 31.2279 11.3435H37.1265C38.7646 11.3435 40.0382 11.6977 40.897 12.4038C41.7558 13.1099 42.1957 14.1723 42.1957 15.4574C42.2247 16.1853 42.0474 16.9063 41.6846 17.5355C41.3356 18.0884 40.8388 18.5296 40.2518 18.8078C40.9954 19.1173 41.6383 19.6315 42.1077 20.2922C42.5078 20.9008 42.7194 21.6875 42.7194 22.6693C42.7194 24.23 42.225 25.4557 41.2259 26.3442C40.1932 27.1924 38.7478 27.6165 36.8898 27.6165L29.5647 27.5953Z" fill="#5A5A5D"/>
<path fill-rule="evenodd" clip-rule="evenodd" d="M68.0925 27.5911H66.4167C65.9882 27.6081 65.5699 27.456 65.25 27.167C65.0989 27.0146 64.9808 26.832 64.9032 26.6308C64.8257 26.4296 64.7904 26.2143 64.7996 25.9986V19.2446C64.7996 18.4876 64.5713 17.9342 64.1042 17.5885C63.6575 17.2559 63.117 17.0774 62.5625 17.0796C62.013 17.0722 61.4768 17.2514 61.0396 17.5885C60.6018 17.9342 60.384 18.4876 60.384 19.2446V27.5911H57.0325V19.8957C57.0325 17.7624 57.6043 16.331 58.7082 15.6079C59.8264 14.8766 61.1208 14.4688 62.4515 14.4289C63.8079 14.4182 65.1412 14.7849 66.3057 15.4892C67.4746 16.242 68.082 17.6903 68.082 19.8914L68.0925 27.5911Z" fill="#5A5A5D"/>
<path fill-rule="evenodd" clip-rule="evenodd" d="M52.2084 20.9941C51.5894 21.2624 50.9442 21.4635 50.2834 21.5942L49.1585 21.8381C48.5678 22.0035 48.1258 22.207 47.8786 22.4594C47.6656 22.7632 47.5461 23.1239 47.5351 23.4963C47.5239 23.707 47.5567 23.9177 47.6314 24.1147C47.7061 24.3116 47.8211 24.4904 47.9687 24.6393C48.2682 24.9044 48.6935 25.0231 49.259 25.0231C50.1702 25.0231 50.8971 24.7771 51.4103 24.2618C51.9235 23.7465 52.2063 23.0552 52.2063 22.1667L52.2084 20.9941ZM53.0023 26.4227C51.7455 27.4426 50.3232 27.5911 48.771 27.5911C47.669 27.6107 46.5867 27.2945 45.6645 26.6835C44.7722 26.0473 44.3428 25.0231 44.3428 23.596C44.3428 22.2643 44.7366 21.3185 45.5535 20.7481C46.3704 20.1777 47.3885 19.796 48.6369 19.603C48.8287 19.6001 49.0197 19.5766 49.2067 19.533C49.4692 19.4764 49.7351 19.4374 50.0027 19.4164C51.4396 19.2213 52.1644 18.7972 52.1644 18.178C52.1644 17.6945 51.9047 17.3913 51.4145 17.2556C50.9565 17.116 50.4809 17.0446 50.0027 17.0435C49.5865 17.0343 49.1721 17.1011 48.7794 17.2407C48.6025 17.2895 48.4382 17.3768 48.2982 17.4966C48.1581 17.6164 48.0457 17.7657 47.9687 17.9342H44.6884C44.8069 16.9698 45.298 16.0922 46.0541 15.4934C46.9486 14.7873 48.2075 14.4077 49.8497 14.4077C51.6889 14.4077 53.0672 14.7215 53.9847 15.3216C54.4318 15.5975 54.7987 15.9882 55.0481 16.4542C55.2976 16.9201 55.4207 17.4447 55.4049 17.9744V22.3173C55.4049 23.5896 55.1682 24.5672 54.6822 25.2861C54.0769 25.8734 53.6726 25.9561 53.0065 26.4184" fill="#5A5A5D"/>
<path fill-rule="evenodd" clip-rule="evenodd" d="M55.4049 27.6441H53.9386C53.7434 27.6523 53.5488 27.616 53.3693 27.5378C53.1899 27.4597 53.03 27.3416 52.9017 27.1924C52.6336 26.8724 52.4931 26.4625 52.5079 26.0431V22.207H55.4049V27.6441Z" fill="#5A5A5D"/>
<path fill-rule="evenodd" clip-rule="evenodd" d="M72.9543 15.0333V19.444L76.8861 14.4077H80.7634L76.3812 19.8427L80.8199 27.5911H76.9405L74.672 23.35C74.2007 22.487 73.7985 22.1201 73.457 22.2643C73.1156 22.4085 72.9543 22.5845 72.9543 22.8305V27.5911H69.7138V11.3351H71.3896C71.5995 11.3302 71.808 11.371 72.001 11.4548C72.194 11.5386 72.3669 11.6634 72.5081 11.8207C72.7933 12.1047 72.9565 12.4909 72.9627 12.8958L72.9543 15.0333Z" fill="#5A5A5D"/>
<path fill-rule="evenodd" clip-rule="evenodd" d="M3.29918 31.4674V32.1269H2.82997C2.54431 32.125 2.2606 32.1746 1.99209 32.2732C1.74657 32.3644 1.51996 32.501 1.32388 32.6761C1.13533 32.8549 0.991699 33.0766 0.904938 33.3229C0.788638 33.5592 0.72975 33.8202 0.733172 34.0842C0.721344 34.4726 0.81868 34.8565 1.01386 35.1911C1.19356 35.4586 1.42965 35.6824 1.70511 35.8463C1.96301 35.9855 2.25075 36.0583 2.54299 36.0584H3.29709V36.7094H2.54299C2.09037 36.7242 1.64332 36.6048 1.25685 36.3659C0.867314 36.1508 0.550041 35.823 0.345653 35.4244C0.117084 35.0157 -0.00205867 34.5538 2.69175e-05 34.0842C0.00689688 33.6456 0.13222 33.2174 0.36241 32.8458C0.582854 32.4325 0.912004 32.089 1.3134 31.8534C1.74611 31.5922 2.24252 31.4592 2.74618 31.4695L3.29918 31.4674Z" fill="#5A5A5D"/>
<path fill-rule="evenodd" clip-rule="evenodd" d="M7.71062 36.7179H7.04869V34.6949C7.05678 34.4977 7.00248 34.3031 6.89369 34.1393C6.7942 33.9812 6.64742 33.8593 6.47474 33.7915C6.29255 33.7051 6.09361 33.6609 5.89242 33.6622C5.66977 33.6589 5.45113 33.7223 5.26401 33.8445C5.08243 33.9506 4.93649 34.1095 4.84507 34.3005C4.75878 34.5011 4.71524 34.7178 4.71729 34.9366C4.71208 35.1528 4.7657 35.3663 4.8723 35.5537C4.96414 35.7417 5.11024 35.897 5.29124 35.999C5.47357 36.1118 5.68292 36.1719 5.89661 36.1729C6.0749 36.1669 6.2494 36.1192 6.40641 36.0335C6.56342 35.9478 6.69866 35.8263 6.80152 35.6788V36.4507C6.6645 36.5516 6.51526 36.6342 6.35744 36.6967C6.19318 36.7787 6.01014 36.8146 5.82748 36.8006C5.58516 36.794 5.34629 36.7407 5.12366 36.6436C4.90482 36.5504 4.7073 36.4125 4.54343 36.2386C4.37949 36.0538 4.2541 35.8375 4.17476 35.6025C4.08255 35.3779 4.03418 35.1374 4.03232 34.8942C4.03086 34.5629 4.11461 34.237 4.27531 33.9484C4.41612 33.6673 4.63924 33.437 4.91419 33.289C5.21687 33.1229 5.55656 33.0382 5.9008 33.043C6.15962 33.0449 6.41667 33.0864 6.66327 33.166C6.86775 33.2453 7.05701 33.3601 7.22255 33.5053C7.38401 33.6547 7.5082 33.8407 7.58494 34.0481C7.66814 34.2762 7.7107 34.5175 7.71062 34.7606V36.7179Z" fill="#5A5A5D"/>
<path fill-rule="evenodd" clip-rule="evenodd" d="M9.41156 36.7179H8.75592V34.2538C8.74723 34.0447 8.80286 33.838 8.91511 33.6622C9.03753 33.4754 9.19918 33.3183 9.38852 33.202C9.59008 33.1014 9.81109 33.0471 10.0358 33.043C10.2411 33.048 10.4439 33.0897 10.6349 33.166C10.8085 33.2644 10.9621 33.3953 11.0873 33.5519C11.1919 33.3835 11.3426 33.2495 11.5209 33.166C11.7153 33.0862 11.9228 33.0444 12.1326 33.043C12.3043 33.04 12.4748 33.0733 12.6332 33.1405C12.7828 33.1966 12.9186 33.2848 13.0312 33.3992C13.1539 33.5026 13.246 33.6384 13.2972 33.7915C13.368 33.9349 13.4032 34.0936 13.3999 34.2538V36.7179H12.7631V34.4256C12.769 34.2215 12.7037 34.0218 12.5787 33.8615C12.5191 33.7975 12.4469 33.7468 12.3669 33.7125C12.2868 33.6782 12.2006 33.661 12.1137 33.6622C11.634 33.6622 11.3973 33.9485 11.3973 34.521V36.7179H10.7396V34.521C10.7396 33.9485 10.5301 33.6622 10.0588 33.6622C9.97086 33.6602 9.88345 33.6768 9.80226 33.7112C9.72107 33.7455 9.64791 33.7967 9.58751 33.8615C9.45822 34.019 9.39505 34.2215 9.41156 34.4256V36.7179Z" fill="#5A5A5D"/>
<path fill-rule="evenodd" clip-rule="evenodd" d="M18.3748 36.7179H17.7066V31.4674H18.3748V34.4362H18.6241C18.9006 34.4362 19.0807 34.3704 19.1896 34.169L19.818 33.1087H20.5658L20.0841 33.9209C20.0033 34.0672 19.9145 34.2088 19.818 34.345C19.7521 34.4536 19.6538 34.5383 19.5373 34.5867C19.7697 34.6259 19.9822 34.7432 20.1406 34.9197C20.291 35.1337 20.3649 35.3932 20.3501 35.6555V36.7158H19.6903V35.7233C19.6954 35.6372 19.6836 35.5508 19.6555 35.4693C19.6275 35.3878 19.5838 35.3127 19.5269 35.2483C19.4727 35.192 19.4074 35.1477 19.3352 35.1185C19.263 35.0893 19.1856 35.0757 19.1079 35.0787H18.3748V36.7179Z" fill="#5A5A5D"/>
<path fill-rule="evenodd" clip-rule="evenodd" d="M24.8223 34.1753L22.4008 35.5261L22.1201 35.0066L23.8964 34.0184C23.8032 33.9026 23.684 33.811 23.5487 33.7512C23.4052 33.6891 23.2502 33.6587 23.0941 33.6622C22.9375 33.6582 22.7819 33.6879 22.6375 33.7493C22.493 33.8108 22.3631 33.9025 22.2562 34.0184C22.1403 34.1369 22.0497 34.2782 21.9899 34.4336C21.9301 34.589 21.9024 34.7551 21.9085 34.9218C21.9059 35.0851 21.9353 35.2474 21.995 35.3991C22.0546 35.5509 22.1434 35.6892 22.2562 35.806C22.3613 35.9245 22.4908 36.0183 22.6356 36.0805C22.7804 36.1428 22.9369 36.1722 23.0941 36.1665C23.2406 36.1774 23.3878 36.157 23.526 36.1066C23.6642 36.0562 23.7904 35.9769 23.8964 35.8739C24.1095 35.6385 24.2455 35.3423 24.286 35.0257L24.95 35.1063C24.9307 35.4154 24.8309 35.7139 24.661 35.9714C24.5023 36.2305 24.2742 36.4386 24.0032 36.5716C23.7207 36.7132 23.4094 36.7858 23.0941 36.7836C22.8496 36.7752 22.6078 36.7279 22.3777 36.6436C22.1596 36.5521 21.96 36.4205 21.7891 36.2556C21.6208 36.0801 21.4795 35.88 21.3702 35.6618C21.2808 35.4212 21.2354 35.1661 21.2361 34.909C21.2338 34.6525 21.2793 34.3978 21.3702 34.1584C21.466 33.931 21.6089 33.7271 21.7891 33.5604C21.9593 33.3896 22.1587 33.2517 22.3777 33.1532C22.608 33.0717 22.8502 33.0302 23.0941 33.0303C23.4641 33.0235 23.828 33.1259 24.1415 33.325C24.4447 33.5362 24.6822 33.8304 24.8264 34.1732" fill="#5A5A5D"/>
<path fill-rule="evenodd" clip-rule="evenodd" d="M22.1054 32.7461L22.7359 31.8512H23.312L23.9592 32.7461H23.444L23.0229 32.1736L22.5935 32.7461H22.1054Z" fill="#5A5A5D"/>
<path fill-rule="evenodd" clip-rule="evenodd" d="M23.7812 32.3326L24.3509 31.425H25.0254L24.2064 32.3326H23.7812Z" fill="#5A5A5D"/>
<path fill-rule="evenodd" clip-rule="evenodd" d="M27.9224 33.1236V33.7597H26.6342V35.6491C26.6265 35.7764 26.6661 35.9019 26.7452 36.0011C26.8564 36.0715 26.9875 36.1028 27.118 36.0902H27.9224V36.7264H27.0217C26.8778 36.7352 26.7337 36.7114 26.6 36.6567C26.4663 36.6021 26.3463 36.5179 26.2487 36.4104C26.0551 36.1722 25.9544 35.8704 25.966 35.5622V32.2096H26.63V33.1257L27.9224 33.1236Z" fill="#5A5A5D"/>
<path d="M32.868 31.4674H32.2103V36.7179H32.868V31.4674Z" fill="#5A5A5D"/>
<path fill-rule="evenodd" clip-rule="evenodd" d="M35.411 37.4685C35.4102 37.4248 35.4186 37.3814 35.4355 37.3412C35.4525 37.301 35.4777 37.2649 35.5094 37.2353C35.5387 37.202 35.5756 37.1766 35.6169 37.161C35.6581 37.1455 35.7025 37.1404 35.7461 37.1462C35.7905 37.1429 35.8351 37.1491 35.877 37.1645C35.9189 37.1798 35.9571 37.204 35.9891 37.2353C36.041 37.3012 36.0664 37.3845 36.0603 37.4685C36.0648 37.5511 36.0395 37.6325 35.9891 37.6976C35.9588 37.7317 35.9211 37.7583 35.879 37.7753C35.8368 37.7922 35.7913 37.799 35.7461 37.7951C35.7017 37.8013 35.6564 37.7956 35.6149 37.7784C35.5733 37.7613 35.537 37.7334 35.5094 37.6976C35.4777 37.6688 35.4524 37.6335 35.4355 37.594C35.4185 37.5544 35.4101 37.5116 35.411 37.4685V37.4685ZM34.6359 34.9239C34.6322 35.2507 34.7513 35.5668 34.969 35.8082C35.0787 35.9253 35.2114 36.018 35.3586 36.0801C35.5058 36.1421 35.6642 36.1723 35.8236 36.1687C35.9806 36.1725 36.1366 36.1423 36.2811 36.0801C36.4256 36.0179 36.5553 35.9252 36.6615 35.8082C36.7704 35.69 36.8543 35.5507 36.9084 35.3987C36.9624 35.2467 36.9853 35.0852 36.9757 34.9239C36.9895 34.7594 36.9686 34.5938 36.9144 34.4381C36.8603 34.2823 36.7741 34.14 36.6615 34.0206C36.5547 33.9045 36.4248 33.8127 36.2804 33.7513C36.1359 33.6899 35.9803 33.6602 35.8236 33.6643C35.6646 33.6604 35.5064 33.69 35.3593 33.7513C35.2121 33.8127 35.0792 33.9043 34.969 34.0206C34.8572 34.1413 34.7702 34.2834 34.7131 34.4384C34.6559 34.5935 34.6297 34.7585 34.6359 34.9239ZM33.9489 34.9239C33.946 34.6639 34.0034 34.4068 34.1165 34.1732C34.201 33.9435 34.3398 33.7382 34.5207 33.5752C34.6954 33.4052 34.8982 33.2674 35.1198 33.1681C35.3464 33.0892 35.584 33.0477 35.8236 33.0451C36.0386 33.0487 36.2513 33.0903 36.452 33.1681C36.6374 33.2205 36.8104 33.3099 36.9611 33.431C37.1092 33.554 37.2403 33.6967 37.3507 33.8551C37.4652 33.854 37.5778 33.8256 37.6795 33.7724C37.715 33.7505 37.7457 33.7216 37.7699 33.6873C37.794 33.6531 37.811 33.6142 37.8199 33.5731H37.6586V33.0536H38.0775V33.5371C38.0843 33.6171 38.0716 33.6976 38.0406 33.7715C38.0096 33.8455 37.9611 33.9106 37.8995 33.9612C37.7826 34.0522 37.6385 34.1001 37.491 34.0969C37.5521 34.2137 37.5965 34.3386 37.623 34.468C37.6648 34.6199 37.686 34.7768 37.6858 34.9345C37.6858 35.1961 37.6248 35.454 37.5078 35.6873C37.4251 35.9121 37.2934 36.115 37.1224 36.281C36.948 36.4467 36.7449 36.5783 36.5233 36.6691C36.2965 36.7498 36.0595 36.7969 35.8194 36.8091C35.5734 36.7957 35.3303 36.7486 35.0968 36.6691C34.8798 36.58 34.6826 36.4481 34.5165 36.281C34.3413 36.1147 34.2034 35.9123 34.1123 35.6873C34.0008 35.4525 33.9435 35.195 33.9447 34.9345" fill="#5A5A5D"/>
<path fill-rule="evenodd" clip-rule="evenodd" d="M39.6402 36.7179H38.9783V33.1236H39.6402V36.7179ZM38.9783 32.3093C38.9815 32.2229 39.0132 32.14 39.0683 32.0739C39.0997 32.0427 39.1371 32.0183 39.1782 32.0023C39.2193 31.9862 39.2631 31.9788 39.3071 31.9806C39.3939 31.9811 39.477 32.0156 39.5391 32.0769C39.6013 32.1382 39.6375 32.2215 39.6402 32.3093C39.6335 32.3983 39.5965 32.4823 39.5354 32.5468C39.4741 32.6066 39.3923 32.6401 39.3071 32.6401C39.2191 32.6389 39.1344 32.6058 39.0683 32.5468C39.0176 32.4773 38.9865 32.3952 38.9783 32.3093" fill="#5A5A5D"/>
<path fill-rule="evenodd" clip-rule="evenodd" d="M44.8141 36.7179H44.1501V33.1236H44.8141V36.7179ZM43.9448 32.6761L44.4978 31.777H45.1786L44.3533 32.6761H43.9448Z" fill="#5A5A5D"/>
<path fill-rule="evenodd" clip-rule="evenodd" d="M48.6516 33.1236V33.7597H48.1195C47.9145 33.7563 47.7116 33.8014 47.5267 33.8912C47.3354 33.9847 47.1748 34.1319 47.0638 34.3153C46.9483 34.501 46.89 34.7173 46.8962 34.9366C46.8891 35.0997 46.9192 35.2622 46.9842 35.4115C47.0492 35.5608 47.1474 35.693 47.2712 35.7976C47.5079 35.9996 47.81 36.1061 48.1195 36.0966H48.6516V36.7327H48.0085C47.7171 36.7264 47.4307 36.6539 47.1706 36.5207C46.8917 36.3699 46.6541 36.1513 46.4794 35.8845C46.3281 35.6315 46.2386 35.3456 46.2182 35.0506C46.1978 34.7556 46.2471 34.46 46.3621 34.1881C46.469 33.9678 46.6161 33.7699 46.7957 33.6049C46.9653 33.4469 47.1679 33.3295 47.3885 33.2614C47.5884 33.1804 47.8015 33.138 48.0169 33.1363L48.6516 33.1236Z" fill="#5A5A5D"/>
<path fill-rule="evenodd" clip-rule="evenodd" d="M50.1681 36.7179H49.4978V31.4674H50.1681V33.4289C50.2771 33.3064 50.4106 33.2088 50.5598 33.1427C50.7255 33.0725 50.904 33.0385 51.0835 33.043C52.0638 33.043 52.5728 33.5731 52.5728 34.6185V36.7179H51.9214V34.6185C51.9214 33.9824 51.626 33.6622 51.0332 33.6622C50.9158 33.6609 50.7995 33.6859 50.6927 33.7354C50.5858 33.7849 50.4911 33.8576 50.4153 33.9485C50.3296 34.0361 50.2633 34.1411 50.2207 34.2566C50.1781 34.3722 50.1602 34.4955 50.1681 34.6185V36.7179Z" fill="#5A5A5D"/>
<path fill-rule="evenodd" clip-rule="evenodd" d="M59.2906 33.1236V33.7597H58.7836C58.5707 33.7576 58.3598 33.8025 58.1657 33.8912C57.9855 33.9935 57.833 34.1391 57.7216 34.3153C57.5825 34.5475 57.5251 34.8205 57.5585 35.09C57.592 35.3594 57.7144 35.6095 57.906 35.7997C58.1531 36.0036 58.465 36.1098 58.7836 36.0987H59.2906V36.7348H58.6517C58.3605 36.7265 58.0746 36.6541 57.8138 36.5228C57.5369 36.3707 57.301 36.1523 57.1267 35.8866C56.9513 35.6009 56.8591 35.2709 56.8607 34.9345C56.8509 34.6763 56.9049 34.4198 57.0178 34.1881C57.1174 33.9672 57.2599 33.7689 57.4368 33.6049C57.6042 33.4442 57.8044 33.3226 58.0233 33.2487C58.2228 33.1665 58.4362 33.124 58.6517 33.1236H59.2906Z" fill="#5A5A5D"/>
<path fill-rule="evenodd" clip-rule="evenodd" d="M63.679 36.7179H63.0359V34.6949C63.0355 34.4973 62.978 34.3042 62.8704 34.1393C62.7576 33.9852 62.6055 33.8651 62.4305 33.7915C62.2501 33.7021 62.0511 33.6577 61.8503 33.6622C61.6281 33.662 61.4103 33.7252 61.2219 33.8446C61.0397 33.9499 60.8936 34.1089 60.8029 34.3005C60.7091 34.4993 60.6584 34.7163 60.6542 34.9366C60.6576 35.1523 60.7122 35.3639 60.8134 35.5537C60.9079 35.7337 61.0455 35.8868 61.2135 35.999C61.4059 36.1079 61.6216 36.1676 61.8419 36.1729C62.0187 36.1681 62.1918 36.1208 62.347 36.0349C62.5022 35.949 62.6349 35.8269 62.7343 35.6788V36.4507C62.6029 36.5592 62.4531 36.6425 62.2923 36.6967C62.1322 36.7823 61.9509 36.8184 61.7707 36.8006C61.5344 36.794 61.3018 36.7407 61.0857 36.6437C60.8652 36.5548 60.6681 36.4154 60.5097 36.2365C60.3395 36.0579 60.2157 35.8393 60.1494 35.6004C60.0506 35.3778 60.0012 35.136 60.0049 34.8921C59.9931 34.5593 60.0783 34.2304 60.2499 33.9463C60.3832 33.6576 60.6112 33.4246 60.8951 33.2869C61.1864 33.1188 61.5172 33.0338 61.8524 33.0409C62.1108 33.0397 62.3676 33.0812 62.6128 33.1639C62.8254 33.2378 63.0218 33.3531 63.1909 33.5031C63.3465 33.6563 63.4679 33.8414 63.547 34.046C63.6358 34.2712 63.6806 34.5118 63.679 34.7543V36.7179Z" fill="#5A5A5D"/>
<path fill-rule="evenodd" clip-rule="evenodd" d="M65.2479 34.9218C65.2434 35.2484 65.3617 35.5645 65.5789 35.806C65.6863 35.9215 65.8163 36.0132 65.9605 36.0752C66.1047 36.1373 66.2601 36.1684 66.4167 36.1665C66.5732 36.167 66.7282 36.1353 66.8722 36.0733C67.0162 36.0113 67.1463 35.9204 67.2546 35.806C67.4746 35.5659 67.5946 35.2492 67.5898 34.9218C67.5966 34.7562 67.5704 34.5908 67.5129 34.4356C67.4553 34.2805 67.3675 34.1386 67.2546 34.0184C67.1458 33.905 67.0155 33.815 66.8716 33.7538C66.7276 33.6926 66.5729 33.6614 66.4167 33.6622C66.2604 33.6601 66.1053 33.6906 65.9611 33.7519C65.817 33.8132 65.6868 33.9039 65.5789 34.0184C65.4675 34.1394 65.3808 34.2815 65.324 34.4366C65.2672 34.5916 65.2413 34.7565 65.2479 34.9218ZM64.5692 34.9218C64.5637 34.6708 64.6096 34.4214 64.7041 34.1893C64.7986 33.9571 64.9395 33.7474 65.118 33.5731C65.2986 33.4086 65.5018 33.2715 65.7213 33.166C65.9465 33.0875 66.1827 33.0459 66.4209 33.043C66.6621 33.0438 66.9014 33.0853 67.1289 33.166C67.3481 33.2628 67.5494 33.3969 67.7238 33.5625C67.9008 33.734 68.04 33.9414 68.1323 34.1711C68.2346 34.4078 68.2874 34.6634 68.2873 34.9218C68.2866 35.1808 68.2339 35.4369 68.1323 35.6746C68.0382 35.899 67.8991 36.1011 67.7238 36.2683C67.5568 36.4392 67.3553 36.5716 67.1331 36.6564C66.9044 36.7405 66.6641 36.7877 66.4209 36.7963C66.1822 36.7844 65.9465 36.7373 65.7213 36.6564C65.4987 36.5651 65.2942 36.4336 65.118 36.2683C64.9507 36.0948 64.8133 35.8941 64.7117 35.6746C64.6144 35.436 64.5659 35.1799 64.5692 34.9218" fill="#5A5A5D"/>
<path fill-rule="evenodd" clip-rule="evenodd" d="M73.2434 36.7179H72.5793V34.6185C72.5745 34.3304 72.6423 34.0458 72.7762 33.7915C72.908 33.5627 73.0993 33.375 73.3293 33.2487C73.5634 33.1053 73.8328 33.0317 74.1064 33.0366C74.3866 33.0319 74.6627 33.1053 74.9045 33.2487C75.134 33.3718 75.3227 33.5606 75.447 33.7915C75.5817 34.0456 75.6502 34.3302 75.646 34.6185V36.7179H74.9778V34.6185C74.9887 34.4506 74.9485 34.2834 74.8626 34.1393C74.7941 33.9924 74.6821 33.8709 74.5421 33.7915C74.4125 33.7061 74.261 33.6611 74.1064 33.6622C73.95 33.6627 73.7969 33.7075 73.6644 33.7915C73.5333 33.8792 73.426 33.9988 73.3523 34.1393C73.2684 34.284 73.2304 34.4513 73.2434 34.6185V36.7179Z" fill="#5A5A5D"/>
<path fill-rule="evenodd" clip-rule="evenodd" d="M77.3427 36.7179H76.6661V31.4674H77.3343V33.4289C77.4458 33.3093 77.5787 33.2121 77.726 33.1427C77.895 33.0738 78.0759 33.04 78.2581 33.043C79.2447 33.043 79.7411 33.5731 79.7411 34.6185V36.7179H79.096V34.6185C79.096 33.9824 78.809 33.6622 78.2329 33.6622C78.1136 33.6583 77.9949 33.682 77.886 33.7316C77.7771 33.7812 77.6808 33.8554 77.6045 33.9485C77.5154 34.0345 77.4454 34.1387 77.3992 34.2543C77.3529 34.3698 77.3315 34.494 77.3364 34.6185L77.3427 36.7179Z" fill="#5A5A5D"/>
<path fill-rule="evenodd" clip-rule="evenodd" d="M84.3181 36.7179H83.6666V34.6949C83.6704 34.4954 83.6093 34.3002 83.4928 34.1393C83.3866 33.9814 83.2353 33.86 83.0592 33.7915C82.8819 33.7037 82.6867 33.6594 82.4894 33.6622C82.267 33.6606 82.0488 33.7239 81.861 33.8446C81.682 33.9507 81.5395 34.1098 81.4525 34.3005C81.3508 34.4965 81.2997 34.7153 81.3038 34.9366C81.3005 35.1518 81.3517 35.3642 81.4525 35.5537C81.5496 35.7345 81.6901 35.8876 81.861 35.999C82.0474 36.1094 82.2588 36.1693 82.4747 36.1729C82.6544 36.1666 82.8303 36.1188 82.989 36.0332C83.1476 35.9476 83.2848 35.8264 83.3901 35.6788V36.4507C83.2507 36.5514 83.0994 36.634 82.9398 36.6967C82.772 36.7794 82.5854 36.8153 82.3993 36.8006C82.1593 36.7919 81.9229 36.7387 81.7018 36.6437C81.4883 36.554 81.2988 36.4144 81.1488 36.2365C80.97 36.0639 80.8436 35.8432 80.7843 35.6004C80.6829 35.3788 80.6348 35.1361 80.644 34.8921C80.6413 34.5635 80.7167 34.2392 80.8639 33.9463C81.0079 33.6668 81.2311 33.4371 81.5049 33.2868C81.8117 33.1198 82.1557 33.0351 82.5041 33.0409C82.7581 33.0428 83.0103 33.0842 83.2519 33.1639C83.4619 33.2422 83.6568 33.357 83.8279 33.5031C83.9849 33.6511 84.1005 33.8384 84.1631 34.046C84.2655 34.2689 84.3156 34.5127 84.3097 34.7585L84.3181 36.7179Z" fill="#5A5A5D"/>
<path fill-rule="evenodd" clip-rule="evenodd" d="M81.5698 32.7758L82.2108 31.8724H82.7889L83.4173 32.7758H82.9167L82.4894 32.1905L82.0746 32.7758H81.5698Z" fill="#5A5A5D"/>
<path fill-rule="evenodd" clip-rule="evenodd" d="M83.2498 32.3326L83.8154 31.425H84.4836L83.675 32.3326H83.2498Z" fill="#5A5A5D"/>
<path fill-rule="evenodd" clip-rule="evenodd" d="M87.3721 33.1236V33.7597H86.0755V35.6491C86.0681 35.7148 86.0769 35.7813 86.101 35.8427C86.1251 35.9041 86.1638 35.9585 86.2138 36.0011C86.3173 36.073 86.443 36.1046 86.5678 36.0902H87.3721V36.7264H86.4903C86.3456 36.7358 86.2008 36.7123 86.0663 36.6577C85.9318 36.603 85.8111 36.5185 85.7131 36.4104C85.6122 36.2955 85.5351 36.1612 85.4865 36.0154C85.4379 35.8697 85.4188 35.7155 85.4304 35.5622V32.2096H86.0755V33.1257L87.3721 33.1236Z" fill="#5A5A5D"/>
<path d="M103.669 5.44945C97.6822 7.76403 91.3638 9.1076 84.9527 9.42928C85.2721 14.2602 88.4416 19.5478 91.0348 19.5478C97.6054 19.5478 102.886 8.60328 104.001 6.26294C104.427 5.39313 104.101 5.26172 103.669 5.44945Z" fill="url(#paint0_linear_1_3)"/>
<path d="M88.5355 7.3893C85.4037 6.26294 86.03 0.868883 85.9611 0.505942C85.6479 -0.676745 80.9 3.49708 80.9 6.33177C80.9 7.51446 81.6705 7.88991 82.9357 7.92746C84.8091 7.9152 86.6781 7.74565 88.523 7.42059C88.5668 7.42685 88.5606 7.39556 88.5355 7.3893Z" fill="url(#paint1_linear_1_3)"/>
<defs>
<linearGradient id="paint0_linear_1_3" x1="82.7003" y1="10.8978" x2="105.364" y2="14.8971" gradientUnits="userSpaceOnUse">
<stop stop-color="#F9A51A"/>
<stop offset="0.5" stop-color="#FFDC00"/>
<stop offset="1" stop-color="#FFDC00"/>
</linearGradient>
<linearGradient id="paint1_linear_1_3" x1="87.4766" y1="9.17272" x2="82.8689" y2="-0.717766" gradientUnits="userSpaceOnUse">
<stop stop-color="#F9A51A"/>
<stop offset="0.2" stop-color="#FFC10E"/>
<stop offset="0.45" stop-color="#FFDC00"/>
<stop offset="1" stop-color="#FFDC00"/>
</linearGradient>
</defs>
</svg>
