<svg width="13" height="12" viewBox="0 0 13 12" fill="none" xmlns="http://www.w3.org/2000/svg">
<path fill-rule="evenodd" clip-rule="evenodd" d="M3.98419 1.23371C4.01903 1.19878 4.06041 1.17108 4.10597 1.15217C4.15153 1.13327 4.20037 1.12354 4.24969 1.12354C4.29902 1.12354 4.34786 1.13327 4.39342 1.15217C4.43898 1.17108 4.48036 1.19878 4.51519 1.23371L9.01519 5.73371C9.05012 5.76854 9.07782 5.80992 9.09673 5.85548C9.11563 5.90104 9.12536 5.94988 9.12536 5.99921C9.12536 6.04853 9.11563 6.09737 9.09673 6.14293C9.07782 6.18849 9.05012 6.22987 9.01519 6.26471L4.51519 10.7647C4.44478 10.8351 4.34928 10.8747 4.24969 10.8747C4.15011 10.8747 4.05461 10.8351 3.98419 10.7647C3.91378 10.6943 3.87422 10.5988 3.87422 10.4992C3.87422 10.3996 3.91378 10.3041 3.98419 10.2337L8.21944 5.99921L3.98419 1.76471C3.94927 1.72987 3.92156 1.68849 3.90266 1.64293C3.88375 1.59737 3.87402 1.54853 3.87402 1.49921C3.87402 1.44988 3.88375 1.40104 3.90266 1.35548C3.92156 1.30992 3.94927 1.26854 3.98419 1.23371Z" fill="#212529"/>
</svg>
