<svg width="25" height="24" viewBox="0 0 25 24" fill="none" xmlns="http://www.w3.org/2000/svg">
<path fill-rule="evenodd" clip-rule="evenodd" d="M19.5 22H5.5C4.397 22 3.5 21.103 3.5 20V8V6C3.5 4.897 4.397 4 5.5 4H7.5V2H9.5V4H15.5V2H17.5V4H19.5C20.603 4 21.5 4.897 21.5 6V8V20C21.5 21.103 20.603 22 19.5 22ZM19.501 20L19.5 8H5.5V20H19.501ZM9.5 11H7.5V13H9.5V11ZM9.5 15H7.5V17H9.5V15ZM13.5 11H11.5V13H13.5V11ZM13.5 15H11.5V17H13.5V15ZM17.5 11H15.5V13H17.5V11ZM17.5 15H15.5V17H17.5V15Z" fill="#B6BEC8"/>
</svg>
