<svg width="25" height="24" viewBox="0 0 25 24" fill="none" xmlns="http://www.w3.org/2000/svg">
<path d="M19.545 7.40088C19.923 7.02288 20.131 6.52088 20.131 5.98688C20.131 5.45288 19.923 4.95088 19.545 4.57288L17.959 2.98688C17.581 2.60888 17.079 2.40088 16.545 2.40088C16.011 2.40088 15.509 2.60888 15.132 2.98588L4.5 13.5849V17.9999H8.913L19.545 7.40088ZM16.545 4.40088L18.132 5.98588L16.542 7.56988L14.956 5.98488L16.545 4.40088ZM6.5 15.9999V14.4149L13.54 7.39688L15.126 8.98288L8.087 15.9999H6.5ZM4.5 19.9999H20.5V21.9999H4.5V19.9999Z" fill="white"/>
</svg>
