<svg width="116" height="116" viewBox="0 0 116 116" fill="none" xmlns="http://www.w3.org/2000/svg">
<path opacity="0.2" d="M28.165 83.0932C24.9094 83.0932 21.9797 81.4137 20.3285 78.6007C18.6774 75.7878 18.6352 72.4045 20.2159 69.551L49.7182 16.2903C51.3451 13.3534 54.3167 11.6 57.6672 11.6C61.0181 11.6 63.9897 13.3534 65.6163 16.2903L95.1192 69.551C96.6996 72.4048 96.6571 75.7877 95.0063 78.6007C93.3548 81.4137 90.4254 83.0932 87.1698 83.0932H28.165Z" fill="#F7A30A"/>
<path d="M21.847 70.4593L51.3495 17.1984C54.1026 12.2281 61.2322 12.2281 63.9854 17.1984L93.4879 70.4593C96.1629 75.2885 92.6797 81.2224 87.1699 81.2224H28.165C22.6552 81.2224 19.172 75.2886 21.847 70.4593Z" fill="#FFC20E"/>
<path opacity="0.21" d="M60.4428 78.8356C68.5333 70.7505 76.6013 62.6429 84.6649 54.531L75.0099 37.1006C68.2353 43.8926 61.4607 50.6846 54.6861 57.4765C47.2948 64.8867 39.9037 72.2969 32.5125 79.7071L31.001 81.2223H58.0445C58.8427 80.4256 59.6451 79.6329 60.4428 78.8356Z" fill="#F7A30A"/>
<path opacity="0.43" d="M85.6049 56.2289C82.0583 59.7965 78.5153 63.3679 74.965 66.9319C70.2139 71.7012 65.4573 76.465 60.6943 81.2223H87.1695C92.6793 81.2223 96.1626 75.2886 93.4875 70.4593L85.6049 56.2289Z" fill="#F7A30A"/>
<path d="M52.9383 60.8644L51.043 39.8392V39.4427C51.043 38.435 51.8578 37.6182 52.8629 37.6182H62.4712C63.4763 37.6182 64.2911 38.435 64.2911 39.4427V39.8392L62.3542 60.8678C62.2717 61.7641 61.5217 62.4497 60.6239 62.4497H54.6688C53.7698 62.4497 53.0192 61.7622 52.9383 60.8644ZM52.6381 70.7777V66.2934C52.6381 65.52 53.2635 64.8929 54.035 64.8929H61.2548C62.0262 64.8929 62.6517 65.52 62.6517 66.2934V70.7777C62.6517 71.5511 62.0262 72.1781 61.2548 72.1781H54.035C53.2635 72.1781 52.6381 71.5511 52.6381 70.7777Z" fill="#464646"/>
<path d="M85.5554 105.082C85.0581 99.7623 84.9653 98.8201 84.8373 98.0462C84.7286 97.4538 84.5846 97.0297 84.4663 96.9624C84.3992 96.8446 83.9778 96.6994 83.386 96.5914C82.614 96.4621 81.6741 96.3691 76.3672 95.8706C81.6741 95.372 82.614 95.2782 83.386 95.1498C83.9778 95.0417 84.3983 94.8965 84.4663 94.7788C84.5846 94.7106 84.7286 94.2873 84.8373 93.6949C84.9662 92.921 85.059 91.978 85.5554 86.6588C86.0536 91.978 86.1463 92.921 86.2744 93.6949C86.3831 94.2873 86.5279 94.7097 86.6445 94.7788C86.7125 94.8965 87.1357 95.0417 87.7257 95.1498C88.4986 95.2791 89.4384 95.372 94.7436 95.8706C89.4384 96.3691 88.4986 96.4621 87.7257 96.5914C87.1357 96.6994 86.7134 96.8446 86.6445 96.9624C86.5279 97.0288 86.3831 97.4538 86.2744 98.0462C86.1463 98.8201 86.0545 99.7623 85.5554 105.082Z" fill="#D3D3D3"/>
<path d="M26.2936 34.7019C26.0575 32.1693 26.0125 31.7197 25.9517 31.3515C25.9004 31.0689 25.8309 30.8686 25.7748 30.8354C25.7432 30.7792 25.5419 30.7103 25.2607 30.6588C24.8928 30.5971 24.445 30.5528 21.9189 30.3153C24.445 30.0778 24.8936 30.0342 25.2607 29.9709C25.5419 29.9202 25.7432 29.8513 25.7748 29.7951C25.8301 29.7619 25.8996 29.5608 25.9517 29.2789C26.0125 28.9108 26.0575 28.4611 26.2936 25.9294C26.5321 28.4611 26.5747 28.9116 26.6379 29.2789C26.6884 29.5608 26.7563 29.7619 26.814 29.7951C26.8455 29.8505 27.0469 29.9194 27.328 29.9709C27.6952 30.0334 28.1437 30.0778 30.669 30.3153C28.1437 30.5528 27.6944 30.5963 27.328 30.6588C27.0469 30.7095 26.8455 30.7784 26.814 30.8354C26.7571 30.8686 26.6892 31.0689 26.6379 31.3515C26.5755 31.7205 26.5321 32.1693 26.2936 34.7019Z" fill="#D3D3D3"/>
<path d="M77.0474 103.718C76.9005 102.142 76.8725 101.862 76.8346 101.633C76.8027 101.457 76.7594 101.332 76.7246 101.312C76.7049 101.277 76.5796 101.234 76.4047 101.202C76.1757 101.163 75.8971 101.136 74.3252 100.988C75.8971 100.84 76.1762 100.813 76.4047 100.774C76.5796 100.742 76.7049 100.699 76.7246 100.664C76.759 100.644 76.8022 100.518 76.8346 100.343C76.8725 100.114 76.9005 99.8342 77.0474 98.2588C77.1958 99.8342 77.2223 100.115 77.2616 100.343C77.2931 100.518 77.3353 100.644 77.3712 100.664C77.3908 100.699 77.5161 100.742 77.6911 100.774C77.9196 100.813 78.1987 100.84 79.7701 100.988C78.1987 101.136 77.9191 101.163 77.6911 101.202C77.5161 101.233 77.3908 101.276 77.3712 101.312C77.3358 101.332 77.2936 101.457 77.2616 101.633C77.2228 101.862 77.1958 102.142 77.0474 103.718Z" fill="#D3D3D3"/>
<path d="M16.0355 52.5411C15.9066 51.3592 15.882 51.1493 15.8488 50.9775C15.8208 50.8456 15.7829 50.7522 15.7523 50.7366C15.735 50.7104 15.6251 50.6783 15.4717 50.6542C15.2708 50.6254 15.0264 50.6047 13.6475 50.4939C15.0264 50.3831 15.2712 50.3627 15.4717 50.3332C15.6251 50.3095 15.735 50.2774 15.7523 50.2512C15.7825 50.2356 15.8204 50.1418 15.8488 50.0103C15.882 49.8384 15.9066 49.6286 16.0355 48.447C16.1657 49.6286 16.1889 49.8388 16.2234 50.0103C16.251 50.1418 16.2881 50.2356 16.3195 50.2512C16.3368 50.277 16.4467 50.3092 16.6002 50.3332C16.8006 50.3624 17.0454 50.3831 18.4239 50.4939C17.0454 50.6047 16.8002 50.6251 16.6002 50.6542C16.4467 50.6779 16.3368 50.71 16.3195 50.7366C16.2885 50.7522 16.2514 50.8456 16.2234 50.9775C16.1894 51.1497 16.1657 51.3592 16.0355 52.5411Z" fill="#D3D3D3"/>
<path d="M8.87133 64.1411C8.42726 59.4116 8.34378 58.5736 8.2308 57.8849C8.13255 57.3593 8.00483 56.983 7.89971 56.923C7.83879 56.8189 7.46349 56.6902 6.93788 56.5929C6.24919 56.478 5.41017 56.3955 0.682617 55.9524C5.41115 55.5093 6.24919 55.4258 6.93788 55.3108C7.46349 55.2146 7.83978 55.0859 7.89971 54.9817C8.00385 54.9208 8.13255 54.5455 8.2308 54.0199C8.34378 53.3312 8.42726 52.4922 8.87133 47.7646C9.31442 52.4932 9.39597 53.3312 9.5119 54.0199C9.60818 54.5455 9.73687 54.9218 9.84101 54.9817C9.90094 55.0859 10.2772 55.2146 10.8038 55.3108C11.4915 55.4258 12.3306 55.5093 17.0591 55.9524C12.3306 56.3955 11.4915 56.478 10.8038 56.5929C10.2772 56.6902 9.89996 56.8179 9.84101 56.923C9.73687 56.984 9.60818 57.3593 9.5119 57.8849C9.39597 58.5736 9.31442 59.4116 8.87133 64.1411Z" fill="#D3D3D3"/>
<path d="M15.6929 72.3294C15.3969 69.1759 15.3416 68.6183 15.2654 68.158C15.2022 67.8069 15.1167 67.5557 15.047 67.5163C15.0062 67.4466 14.755 67.3611 14.4038 67.298C13.9447 67.2204 13.387 67.1651 10.2354 66.8692C13.387 66.5747 13.9447 66.5181 14.4038 66.4432C14.7563 66.3774 15.0062 66.2919 15.047 66.2236C15.1167 66.1828 15.2022 65.9316 15.2654 65.5805C15.343 65.1216 15.3982 64.5626 15.6929 61.4117C15.9888 64.5626 16.0454 65.1216 16.1217 65.5805C16.1848 65.9329 16.2703 66.1828 16.3413 66.2236C16.3808 66.2919 16.6333 66.3774 16.9819 66.4432C17.4423 66.5194 18 66.576 21.153 66.8692C18.0014 67.1665 17.4423 67.2217 16.9819 67.298C16.632 67.3611 16.3808 67.4466 16.3413 67.5163C16.2703 67.5557 16.1848 67.8082 16.1217 68.158C16.0454 68.6183 15.9888 69.1746 15.6929 72.3294Z" fill="#D3D3D3"/>
<path d="M107.148 66.1882C106.742 61.8539 106.668 61.0854 106.562 60.4543C106.473 59.9697 106.358 59.6262 106.262 59.572C106.208 59.478 105.862 59.3604 105.38 59.27C104.752 59.1651 103.986 59.0892 99.6621 58.6823C103.984 58.2755 104.752 58.1995 105.38 58.0965C105.864 58.0061 106.208 57.8885 106.262 57.7945C106.358 57.7403 106.473 57.3931 106.562 56.9121C106.67 56.281 106.744 55.5107 107.148 51.1765C107.556 55.5089 107.629 56.281 107.736 56.9121C107.824 57.3949 107.942 57.7403 108.035 57.7945C108.091 57.8885 108.436 58.0061 108.914 58.0965C109.545 58.2013 110.31 58.2773 114.635 58.6823C110.312 59.091 109.545 59.1669 108.914 59.27C108.434 59.3604 108.091 59.478 108.035 59.572C107.942 59.6262 107.824 59.9716 107.736 60.4543C107.628 61.0854 107.554 61.8539 107.148 66.1882Z" fill="#D3D3D3"/>
<path d="M95.2086 50.3099L90.1338 50.1532L95.2086 49.9965C96.4738 49.7869 96.9148 49.3436 97.1239 48.0764L97.2802 42.9882L97.437 48.0764C97.645 49.3436 98.0871 49.7869 99.3523 49.9965L104.427 50.1532L99.3523 50.3099C98.0871 50.519 97.645 50.9622 97.437 52.2295L97.2802 57.3176L97.1239 52.2295C96.9148 50.9622 96.4738 50.519 95.2086 50.3099Z" fill="#D3D3D3"/>
<path d="M41.5009 96.7398L35.7012 96.5532L41.5009 96.3667C42.9469 96.1172 43.4509 95.5895 43.6899 94.0808L43.8685 88.0235L44.0477 94.0808C44.2854 95.5895 44.7907 96.1172 46.2367 96.3667L52.0358 96.5532L46.2367 96.7398C44.7907 96.9887 44.2854 97.5163 44.0477 99.025L43.8685 105.082L43.6899 99.025C43.4509 97.5163 42.9469 96.9887 41.5009 96.7398Z" fill="#D3D3D3"/>
</svg>
