<svg width="20" height="20" viewBox="0 0 20 20" fill="none" xmlns="http://www.w3.org/2000/svg">
<path d="M9.99975 17C10.9458 17 11.8097 16.897 12.5977 16.719L10.8407 14.962C10.5677 14.983 10.2908 15 9.99975 15C4.64875 15 2.57575 11.154 2.07375 9.99997C2.27775 9.52997 2.74775 8.61897 3.58175 7.70297L2.18375 6.30497C0.64575 7.97197 0.06275 9.65097 0.05175 9.68397C-0.01725 9.88897 -0.01725 10.112 0.05175 10.317C0.07275 10.383 2.36675 17 9.99975 17ZM9.99975 2.99997C8.16275 2.99997 6.65375 3.39597 5.39575 3.98097L1.70675 0.292969L0.29275 1.70697L18.2927 19.707L19.7068 18.293L16.3878 14.974C19.0018 13.023 19.9347 10.359 19.9487 10.317C20.0177 10.112 20.0177 9.88897 19.9487 9.68397C19.9268 9.61697 17.6327 2.99997 9.99975 2.99997ZM14.9718 13.558L12.6918 11.278C12.8818 10.888 12.9998 10.459 12.9998 9.99997C12.9998 8.35897 11.6407 6.99997 9.99975 6.99997C9.54075 6.99997 9.11175 7.11797 8.72275 7.30897L6.91475 5.50097C7.79575 5.19297 8.81375 4.99997 9.99975 4.99997C15.3507 4.99997 17.4237 8.84597 17.9258 9.99997C17.6238 10.692 16.7598 12.342 14.9718 13.558Z" fill="#B6BEC8"/>
</svg>
