<svg width="24" height="24" viewBox="0 0 24 24" fill="none" xmlns="http://www.w3.org/2000/svg">
<path d="M9.49999 21.9998C11.503 21.9998 13.387 21.2198 14.813 19.7928L21.717 12.6968C21.997 12.4088 22.077 11.9808 21.921 11.6108C21.765 11.2408 21.402 10.9998 21 10.9998H17.699L21.874 3.48576C22.091 3.09476 22.022 2.60876 21.707 2.29276C21.391 1.97776 20.904 1.90876 20.515 2.12576L13.405 6.07576L13.981 3.19676C14.065 2.77876 13.875 2.35376 13.507 2.13776C13.14 1.92276 12.675 1.96276 12.352 2.23976L4.19599 9.19676C1.27199 12.1208 1.27199 16.8788 4.19599 19.8028C5.61299 21.2198 7.49699 21.9998 9.49999 21.9998ZM5.55199 10.6648L11.454 5.63376L11.206 6.87376L11.02 7.80376V7.80476L10.596 9.92376L18.426 5.57376L15.126 11.5138C15.126 11.5138 15.126 11.5148 15.125 11.5148L14.301 12.9998H16H18.632L13.389 18.3888C12.35 19.4278 10.969 19.9998 9.49999 19.9998C8.03099 19.9998 6.64899 19.4278 5.60999 18.3888C3.46699 16.2448 3.46699 12.7548 5.55199 10.6648Z" fill="#D12421"/>
<path d="M9.5 17.9998C11.433 17.9998 13 16.4328 13 14.4998C13 13.0998 12.172 11.8998 10.984 11.3408C10.989 11.3938 11 11.4458 11 11.4998C11 12.3288 10.328 12.9998 9.5 12.9998C8.672 12.9998 8 12.3288 8 11.4998C8 11.4458 8.011 11.3938 8.016 11.3408C6.828 11.8998 6 13.0998 6 14.4998C6 16.4328 7.567 17.9998 9.5 17.9998Z" fill="#D12421"/>
</svg>
