<svg width="32" height="32" viewBox="0 0 32 32" fill="none" xmlns="http://www.w3.org/2000/svg">
<path d="M28.6447 14.8329L16.6154 8.16619C16.214 7.94352 15.726 7.94352 15.3247 8.16486L3.35402 14.7782C2.93002 15.0129 2.66735 15.4582 2.66602 15.9435C2.66469 16.4289 2.92602 16.8742 3.35002 17.1102L15.3794 23.8302C15.582 23.9435 15.8047 23.9995 16.0287 23.9995C16.2527 23.9995 16.4754 23.9435 16.6767 23.8315L28.6474 17.1649C29.0714 16.9289 29.3327 16.4822 29.3327 15.9982C29.3327 15.5142 29.07 15.0675 28.6447 14.8329ZM16.03 21.1395L6.74469 15.9529L15.9674 10.8569L25.2527 16.0022L16.03 21.1395Z" fill="#1890FF"/>
<path d="M15.9996 29.3337C16.2222 29.3337 16.4462 29.2777 16.6462 29.1657L28.6462 22.499L27.3516 20.1683L15.9996 26.475L4.64623 20.1683L3.35156 22.499L15.3516 29.1657C15.5529 29.2777 15.7769 29.3337 15.9996 29.3337ZM26.6662 2.66699H23.9996V5.33366H21.3329V8.00033H23.9996V10.667H26.6662V8.00033H29.3329V5.33366H26.6662V2.66699Z" fill="#1890FF"/>
</svg>
