<svg width="13" height="12" viewBox="0 0 13 12" fill="none" xmlns="http://www.w3.org/2000/svg">
<path fill-rule="evenodd" clip-rule="evenodd" d="M9.01519 1.23371C9.05012 1.26854 9.07782 1.30992 9.09673 1.35548C9.11563 1.40104 9.12536 1.44988 9.12536 1.49921C9.12536 1.54853 9.11563 1.59737 9.09673 1.64293C9.07782 1.68849 9.05012 1.72987 9.01519 1.76471L4.77994 5.99921L9.01519 10.2337C9.08561 10.3041 9.12517 10.3996 9.12517 10.4992C9.12517 10.5988 9.08561 10.6943 9.01519 10.7647C8.94478 10.8351 8.84928 10.8747 8.74969 10.8747C8.65011 10.8747 8.55461 10.8351 8.48419 10.7647L3.98419 6.26471C3.94927 6.22987 3.92156 6.18849 3.90266 6.14293C3.88375 6.09737 3.87402 6.04853 3.87402 5.99921C3.87402 5.94988 3.88375 5.90104 3.90266 5.85548C3.92156 5.80992 3.94927 5.76854 3.98419 5.73371L8.48419 1.23371C8.51903 1.19878 8.56041 1.17108 8.60597 1.15217C8.65153 1.13327 8.70037 1.12354 8.74969 1.12354C8.79902 1.12354 8.84786 1.13327 8.89342 1.15217C8.93898 1.17108 8.98036 1.19878 9.01519 1.23371Z" fill="#212529"/>
</svg>
