<svg width="23" height="18" viewBox="0 0 23 18" fill="none" xmlns="http://www.w3.org/2000/svg">
<path d="M22.7044 17.2341L20.4636 11.4082C20.2966 10.974 19.8792 10.6871 19.4135 10.6871H13.7176V12.7963H18.4984C18.8865 12.7963 19.2015 13.1113 19.2015 13.4994C19.2015 13.8875 18.8865 14.2024 18.4984 14.2024H13.7176V15.7492C13.7176 16.5979 13.4246 17.378 12.9369 17.999H22.1791C22.5734 17.9984 22.8462 17.6025 22.7044 17.2341ZM10.0617 0H2.7498C1.50735 0 0.5 1.00735 0.5 2.2498V15.7486C0.5 16.9911 1.50735 17.9984 2.7498 17.9984H10.0617C11.3041 17.9984 12.3115 16.9911 12.3115 15.7486V2.2498C12.3115 1.00735 11.3041 0 10.0617 0ZM7.24941 16.1705H5.56206C5.17397 16.1705 4.85899 15.8555 4.85899 15.4674C4.85899 15.0793 5.17397 14.7643 5.56206 14.7643H7.24941C7.6375 14.7643 7.95247 15.0793 7.95247 15.4674C7.95247 15.8555 7.6375 16.1705 7.24941 16.1705ZM8.93676 13.3582H3.87471C3.48661 13.3582 3.17164 13.0432 3.17164 12.6551C3.17164 12.2671 3.48661 11.9521 3.87471 11.9521H8.93676C9.32485 11.9521 9.63983 12.2671 9.63983 12.6551C9.63983 13.0432 9.32485 13.3582 8.93676 13.3582ZM9.6927 7.72584C9.17524 9.07628 7.85573 9.98407 6.40967 9.98407C4.95124 9.98407 3.62835 9.06727 3.11708 7.7022C2.98097 7.33886 3.16545 6.93334 3.5288 6.79723C3.89214 6.66168 4.29711 6.8456 4.43378 7.20894C4.74032 8.02787 5.5345 8.57794 6.40967 8.57794C7.27753 8.57794 8.0689 8.03349 8.37994 7.223C8.51886 6.86022 8.92664 6.67911 9.28773 6.81803C9.65051 6.95696 9.83162 7.36306 9.6927 7.72584ZM9.29617 5.78031C9.2298 5.8 9.16287 5.80956 9.0965 5.80956C8.79334 5.80956 8.51324 5.61158 8.42325 5.30561C8.16002 4.4175 7.32815 3.79654 6.40011 3.79654C5.47207 3.79654 4.6627 4.39105 4.38654 5.27523C4.27011 5.64532 3.87639 5.85062 3.50574 5.73644C3.13508 5.62057 2.92866 5.22629 3.04453 4.85564C3.50574 3.38145 4.85449 2.39042 6.40067 2.39042C7.94685 2.39042 9.33329 3.42532 9.77144 4.90682C9.88112 5.27916 9.66851 5.67063 9.29617 5.78031Z" fill="#464646"/>
<path d="M17.7673 5.97675C16.972 5.65784 16.594 5.27988 16.2751 4.48457C16.1851 4.26015 15.8583 4.26015 15.7678 4.48457C15.4489 5.27988 15.0709 5.65784 14.2762 5.97675C14.0512 6.06674 14.0512 6.39409 14.2762 6.48408C15.0709 6.80299 15.4489 7.18094 15.7678 7.97569C15.8583 8.20067 16.1851 8.20067 16.2751 7.97569C16.594 7.18094 16.972 6.80299 17.7673 6.48408C17.9928 6.39465 17.9928 6.0673 17.7673 5.97675ZM22.8535 7.70177C22.1758 7.42955 21.8535 7.10671 21.5813 6.4284C21.5036 6.2366 21.2247 6.2366 21.1476 6.4284C20.876 7.10671 20.5525 7.42899 19.8748 7.70177C19.6824 7.77883 19.6824 8.05782 19.8748 8.13487C20.5525 8.4071 20.8754 8.72938 21.1476 9.4077C21.2247 9.60006 21.5036 9.60006 21.5813 9.4077C21.8529 8.72938 22.1758 8.40766 22.8535 8.13487C23.0459 8.05782 23.0459 7.77883 22.8535 7.70177ZM19.5041 2.11439C18.9428 1.88885 18.6756 1.62225 18.4507 1.06036C18.3871 0.901753 18.1559 0.901753 18.0918 1.06036C17.8663 1.62225 17.5997 1.88885 17.0378 2.11439C16.8792 2.17795 16.8792 2.40855 17.0378 2.47267C17.5997 2.69765 17.8663 2.96483 18.0918 3.52672C18.1554 3.68533 18.3865 3.68533 18.4507 3.52672C18.6756 2.96483 18.9428 2.69765 19.5041 2.47267C19.6633 2.40911 19.6633 2.17851 19.5041 2.11439Z" fill="#464646"/>
</svg>
