<svg width="28" height="28" viewBox="0 0 28 28" fill="none" xmlns="http://www.w3.org/2000/svg">
<path d="M23.3337 7.33332H22.0003V0.666656H6.00033V7.33332H4.66699C2.46166 7.33332 0.666992 9.12799 0.666992 11.3333V20.6667C0.666992 22.1373 1.86299 23.3333 3.33366 23.3333H6.00033V27.3333H22.0003V23.3333H24.667C26.1377 23.3333 27.3337 22.1373 27.3337 20.6667V11.3333C27.3337 9.12799 25.539 7.33332 23.3337 7.33332ZM8.66699 3.33332H19.3337V7.33332H8.66699V3.33332ZM19.3337 24.6667H8.66699V19.3333H19.3337V24.6667ZM24.667 20.6667H22.0003V19.3333V16.6667H6.00033V19.3333V20.6667H3.33366V11.3333C3.33366 10.5987 3.93233 9.99999 4.66699 9.99999H23.3337C24.0697 9.99999 24.667 10.5987 24.667 11.3333V20.6667Z" fill="white"/>
</svg>
