<svg width="60" height="60" viewBox="0 0 60 60" fill="none" xmlns="http://www.w3.org/2000/svg">
<circle cx="30" cy="30" r="30" fill="#FFECB3"/>
<circle cx="30" cy="29.9996" r="24.5455" fill="#FFC20E"/>
<circle cx="30.0908" cy="30.0909" r="19.0909" fill="#F7A30A"/>
<path d="M37 25H36V20H24V25H23C21.346 25 20 26.346 20 28V35C20 36.103 20.897 37 22 37H24V40H36V37H38C39.103 37 40 36.103 40 35V28C40 26.346 38.654 25 37 25ZM26 22H34V25H26V22ZM34 38H26V34H34V38ZM38 35H36V34V32H24V34V35H22V28C22 27.449 22.449 27 23 27H37C37.552 27 38 27.449 38 28V35Z" fill="white"/>
<path d="M32 28H36V30H32V28Z" fill="white"/>
</svg>
