<svg width="60" height="60" viewBox="0 0 60 60" fill="none" xmlns="http://www.w3.org/2000/svg">
<circle cx="30" cy="30" r="30" fill="#FFECB3"/>
<circle cx="30" cy="29.9996" r="24.5455" fill="#FFC20E"/>
<circle cx="30.0908" cy="30.0909" r="19.0909" fill="#F7A30A"/>
<path d="M38 21H22C20.897 21 20 21.897 20 23V37C20 38.103 20.897 39 22 39H38C39.103 39 40 38.103 40 37V23C40 21.897 39.103 21 38 21ZM22 37V25H38L38.001 37H22Z" fill="white"/>
<path d="M30 30.3333C28.5 30.3333 28.5 29.9133 28.5 29.6667C28.5 29.42 29.025 29 30 29C30.975 29 31.0425 29.4267 31.05 29.6667H32.55C32.5399 29.2125 32.3561 28.7749 32.0289 28.426C31.7018 28.077 31.2507 27.8374 30.75 27.7467V27H29.25V27.7267C27.75 27.9467 27 28.8067 27 29.6667C27 30.4133 27.39 31.6667 30 31.6667C31.5 31.6667 31.5 32.12 31.5 32.3333C31.5 32.5467 31.035 33 30 33C28.62 33 28.5 32.4267 28.5 32.3333H27C27 32.9467 27.495 34.0333 29.25 34.28V35H30.75V34.28C32.25 34.0533 33 33.1933 33 32.3333C33 31.5867 32.61 30.3333 30 30.3333Z" fill="white"/>
</svg>
