<svg width="60" height="60" viewBox="0 0 60 60" fill="none" xmlns="http://www.w3.org/2000/svg">
<circle cx="30" cy="30" r="30" fill="#FFECB3"/>
<circle cx="30" cy="29.9996" r="24.5455" fill="#FFC20E"/>
<circle cx="30.0908" cy="30.0909" r="19.0909" fill="white"/>
<path d="M39 29H36V22C36 21.447 35.553 21 35 21H21C20.447 21 20 21.447 20 22V36C20 37.654 21.346 39 23 39H37C38.654 39 40 37.654 40 36V30C40 29.447 39.553 29 39 29ZM23 37C22.448 37 22 36.552 22 36V23H34V36C34 36.351 34.061 36.688 34.171 37H23ZM38 36C38 36.552 37.552 37 37 37C36.448 37 36 36.552 36 36V31H38V36Z" fill="#F7A30A"/>
<path d="M24 25H32V27H24V25ZM24 29H32V31H24V29ZM29 33H32V35H29V33Z" fill="#F7A30A"/>
</svg>
