<svg width="60" height="60" viewBox="0 0 60 60" fill="none" xmlns="http://www.w3.org/2000/svg">
<circle cx="30" cy="30" r="30" fill="#D3D8DE"/>
<circle cx="30" cy="29.9996" r="24.5455" fill="#B6BEC8"/>
<circle cx="30" cy="30.0001" r="19.0909" fill="white"/>
<path d="M30.1111 23.125H26.9259C26.5168 23.125 26.1852 23.4747 26.1852 23.9062C26.1852 24.7678 25.5205 25.4688 24.7037 25.4688C24.2946 25.4688 23.963 25.8185 23.963 26.25V33.75C23.963 34.1815 24.2946 34.5312 24.7037 34.5312C25.5205 34.5312 26.1852 35.2322 26.1852 36.0938C26.1852 36.5253 26.5168 36.875 26.9259 36.875H30.1111C30.5203 36.875 30.8519 36.5253 30.8519 36.0938C30.8519 35.2322 31.5165 34.5312 32.3333 34.5312C32.7425 34.5312 33.0741 34.1815 33.0741 33.75V26.25C33.0741 25.8185 32.7425 25.4688 32.3333 25.4688C31.5165 25.4688 30.8519 24.7678 30.8519 23.9062C30.8519 23.4747 30.5203 23.125 30.1111 23.125ZM31.5926 26.9324V33.0676C30.553 33.3508 29.7326 34.216 29.4641 35.3125H27.5729C27.3044 34.216 26.4841 33.3508 25.4444 33.0676V26.9324C26.4841 26.6492 27.3044 25.784 27.5729 24.6875H29.4641C29.7326 25.784 30.553 26.6492 31.5926 26.9324ZM38.2593 37.5C38.6684 37.5 39 37.1503 39 36.7188V23.125C39 21.4018 37.6709 20 36.037 20H23.963C22.3291 20 21 21.4018 21 23.125V36.875C21 38.5982 22.3291 40 23.963 40H36.037C37.6709 40 39 38.5982 39 36.875C39 36.4435 38.6684 36.0938 38.2593 36.0938C37.8501 36.0938 37.5185 36.4435 37.5185 36.875C37.5185 37.7365 36.8539 38.4375 36.037 38.4375H35.6385C35.8913 37.9774 36.037 37.444 36.037 36.875V23.125C36.037 22.556 35.8913 22.0226 35.6385 21.5625H36.037C36.8539 21.5625 37.5185 22.2635 37.5185 23.125V36.7188C37.5185 37.1503 37.8501 37.5 38.2593 37.5ZM34.5556 23.125V36.875C34.5556 37.7365 33.8909 38.4375 33.0741 38.4375H23.963C23.1461 38.4375 22.4815 37.7365 22.4815 36.875V23.125C22.4815 22.2635 23.1461 21.5625 23.963 21.5625H33.0741C33.8909 21.5625 34.5556 22.2635 34.5556 23.125Z" fill="#454F5B"/>
<path fill-rule="evenodd" clip-rule="evenodd" d="M20.75 23.125C20.75 21.2765 22.1787 19.75 23.963 19.75H36.037C37.8213 19.75 39.25 21.2765 39.25 23.125V36.7188C39.25 36.745 39.249 36.771 39.2472 36.7969C39.249 36.8227 39.25 36.8488 39.25 36.875C39.25 38.7235 37.8213 40.25 36.037 40.25H23.963C22.1787 40.25 20.75 38.7235 20.75 36.875V23.125ZM38.75 35.9784V23.125C38.75 21.5272 37.5204 20.25 36.037 20.25H23.963C22.4796 20.25 21.25 21.5272 21.25 23.125V36.875C21.25 38.4728 22.4796 39.75 23.963 39.75H36.037C37.2641 39.75 38.3176 38.876 38.6449 37.6695C38.5272 37.7212 38.3971 37.75 38.2593 37.75C38.0269 37.75 37.8166 37.6682 37.6502 37.5326C37.3998 38.203 36.778 38.6875 36.037 38.6875H35.2157L35.4194 38.3171C35.6524 37.8931 35.787 37.4009 35.787 36.875V23.125C35.787 22.5991 35.6524 22.1069 35.4194 21.6829L35.2157 21.3125H36.037C37.0043 21.3125 37.7685 22.1381 37.7685 23.125V35.9784C37.912 35.893 38.079 35.8438 38.2593 35.8438C38.4395 35.8438 38.6065 35.893 38.75 35.9784ZM37.7737 36.7969C37.8092 36.5313 38.0231 36.3438 38.2593 36.3438C38.4954 36.3438 38.7093 36.5313 38.7448 36.7969C38.7093 37.0624 38.4954 37.25 38.2593 37.25C38.0231 37.25 37.8092 37.0624 37.7737 36.7969ZM37.2714 36.7969C37.2695 36.771 37.2685 36.745 37.2685 36.7188V23.125C37.2685 22.3889 36.7034 21.8125 36.037 21.8125H36.0334C36.1965 22.2164 36.287 22.6599 36.287 23.125V36.875C36.287 37.3401 36.1965 37.7836 36.0334 38.1875H36.037C36.7034 38.1875 37.2685 37.6111 37.2685 36.875C37.2685 36.8488 37.2695 36.8227 37.2714 36.7969ZM23.963 21.8125C23.2966 21.8125 22.7315 22.3889 22.7315 23.125V36.875C22.7315 37.6111 23.2966 38.1875 23.963 38.1875H33.0741C33.7405 38.1875 34.3056 37.6111 34.3056 36.875V23.125C34.3056 22.3889 33.7405 21.8125 33.0741 21.8125H23.963ZM22.2315 23.125C22.2315 22.1381 22.9957 21.3125 23.963 21.3125H33.0741C34.0414 21.3125 34.8056 22.1381 34.8056 23.125V36.875C34.8056 37.8619 34.0414 38.6875 33.0741 38.6875H23.963C22.9957 38.6875 22.2315 37.8619 22.2315 36.875V23.125ZM25.9352 23.9062C25.9352 23.3494 26.3663 22.875 26.9259 22.875H30.1111C30.6707 22.875 31.1019 23.3494 31.1019 23.9062C31.1019 24.6424 31.6669 25.2188 32.3333 25.2188C32.8929 25.2188 33.3241 25.6931 33.3241 26.25V33.75C33.3241 34.3069 32.8929 34.7812 32.3333 34.7812C31.6669 34.7812 31.1019 35.3576 31.1019 36.0938C31.1019 36.6506 30.6707 37.125 30.1111 37.125H26.9259C26.3663 37.125 25.9352 36.6506 25.9352 36.0938C25.9352 35.3576 25.3701 34.7812 24.7037 34.7812C24.1441 34.7812 23.713 34.3069 23.713 33.75V26.25C23.713 25.6931 24.1441 25.2188 24.7037 25.2188C25.3701 25.2188 25.9352 24.6424 25.9352 23.9062ZM26.9259 23.375C26.6672 23.375 26.4352 23.6001 26.4352 23.9062C26.4352 24.8931 25.671 25.7188 24.7037 25.7188C24.445 25.7188 24.213 25.9438 24.213 26.25V33.75C24.213 34.0562 24.445 34.2812 24.7037 34.2812C25.671 34.2812 26.4352 35.1069 26.4352 36.0938C26.4352 36.3999 26.6672 36.625 26.9259 36.625H30.1111C30.3698 36.625 30.6019 36.3999 30.6019 36.0938C30.6019 35.1069 31.366 34.2812 32.3333 34.2812C32.592 34.2812 32.8241 34.0562 32.8241 33.75V26.25C32.8241 25.9438 32.592 25.7188 32.3333 25.7188C31.366 25.7188 30.6019 24.8931 30.6019 23.9062C30.6019 23.6001 30.3698 23.375 30.1111 23.375H26.9259ZM27.3768 24.4375H29.6603L29.7069 24.628C29.9551 25.6415 30.7114 26.4332 31.6583 26.6912L31.8426 26.7414V33.2586L31.6583 33.3088C30.7114 33.5668 29.9551 34.3585 29.7069 35.372L29.6603 35.5625H27.3768L27.3301 35.372C27.0819 34.3585 26.3256 33.5668 25.3787 33.3088L25.1944 33.2586V26.7414L25.3787 26.6912C26.3256 26.4332 27.0819 25.6415 27.3301 24.628L27.3768 24.4375ZM27.7633 24.9375C27.4492 25.9636 26.6778 26.7818 25.6944 27.1171V32.8829C26.6778 33.2182 27.4492 34.0364 27.7633 35.0625H29.2737C29.5879 34.0364 30.3593 33.2182 31.3426 32.8829V27.1171C30.3593 26.7818 29.5879 25.9636 29.2737 24.9375H27.7633Z" fill="#454F5B"/>
</svg>
