<svg width="32" height="32" viewBox="0 0 32 32" fill="none" xmlns="http://www.w3.org/2000/svg">
<ellipse cx="16.0001" cy="16" rx="15.8545" ry="16" fill="#FCC954"/>
<path d="M21.2022 14.5V12.25C21.2022 11.4227 20.5356 10.75 19.7158 10.75H17.4863C17.4863 9.5095 16.486 8.5 15.2567 8.5C14.0275 8.5 13.0272 9.5095 13.0272 10.75H10.7976C9.97791 10.75 9.31128 11.4227 9.31128 12.25V15.1607L9.80104 15.34C10.3971 15.5575 10.7976 16.1245 10.7976 16.75C10.7976 17.3755 10.3971 17.9425 9.80104 18.16L9.31128 18.3393V21.25C9.31128 22.0773 9.97791 22.75 10.7976 22.75H13.6819L13.8596 22.2557C14.0751 21.6542 14.6369 21.25 15.2567 21.25C15.8765 21.25 16.4384 21.6542 16.6539 22.2557L16.8315 22.75H19.7158C20.5356 22.75 21.2022 22.0773 21.2022 21.25V19C22.4314 19 23.4317 17.9905 23.4317 16.75C23.4317 15.5095 22.4314 14.5 21.2022 14.5ZM21.2022 17.5H19.7158L19.7136 21.25H17.8222C17.2938 20.335 16.3195 19.75 15.2567 19.75C14.194 19.75 13.2197 20.335 12.6913 21.25H10.7976V19.339C11.7043 18.8057 12.284 17.8225 12.284 16.75C12.284 15.6775 11.7043 14.6943 10.7976 14.161V12.25H14.5136V10.75C14.5136 10.5511 14.5919 10.3603 14.7312 10.2197C14.8706 10.079 15.0596 10 15.2567 10C15.4538 10 15.6429 10.079 15.7822 10.2197C15.9216 10.3603 15.9999 10.5511 15.9999 10.75V12.25H19.7158V16H21.2022C21.3993 16 21.5883 16.079 21.7277 16.2197C21.8671 16.3603 21.9454 16.5511 21.9454 16.75C21.9454 16.9489 21.8671 17.1397 21.7277 17.2803C21.5883 17.421 21.3993 17.5 21.2022 17.5Z" fill="white"/>
</svg>
