<svg width="32" height="32" viewBox="0 0 32 32" fill="none" xmlns="http://www.w3.org/2000/svg">
<ellipse cx="16.0001" cy="16" rx="15.8545" ry="16" fill="#B6BEC8"/>
<path fill-rule="evenodd" clip-rule="evenodd" d="M15.6274 7.03976C15.8569 6.90081 16.1436 6.90081 16.3731 7.03976L24.6306 12.0398C24.8489 12.1719 24.9824 12.4099 24.9824 12.6668V16.4168C24.9824 16.8207 24.658 17.148 24.2578 17.148H23.4096V20.2689H24.2578C24.658 20.2689 24.9824 20.5963 24.9824 21.0001V23.5001C24.9824 23.9037 24.6585 24.231 24.2585 24.2314L23.4318 24.2322L7.74267 24.2314C7.34248 24.2314 7.01807 23.904 7.01807 23.5001V21.0001C7.01807 20.5963 7.34248 20.2689 7.74267 20.2689H8.59094V17.148H7.74267C7.34248 17.148 7.01807 16.8207 7.01807 16.4168V12.6668C7.01807 12.4099 7.15161 12.1719 7.36986 12.0398L15.6274 7.03976ZM8.46727 13.0808V15.6855H9.31554C9.71573 15.6855 10.0401 16.0129 10.0401 16.4168V21.0001C10.0401 21.404 9.71573 21.7314 9.31554 21.7314H8.46727V22.7689L23.4313 22.7697L23.5332 22.7696V21.7314H22.685C22.2848 21.7314 21.9603 21.404 21.9603 21.0001V16.4168C21.9603 16.0129 22.2848 15.6855 22.685 15.6855H23.5332V13.0808L16.0002 8.51957L8.46727 13.0808ZM16.0001 11.7305C15.7541 11.7305 15.5182 11.829 15.3443 12.0045C15.1703 12.1799 15.0726 12.4179 15.0725 12.6661C15.0725 12.789 15.0964 12.9107 15.143 13.0243C15.1896 13.1378 15.2579 13.241 15.344 13.3279C15.43 13.4149 15.5322 13.4838 15.6447 13.5309C15.7572 13.5779 15.8778 13.6022 15.9996 13.6022C16.1214 13.6022 16.242 13.5781 16.3545 13.5311C16.467 13.4841 16.5693 13.4152 16.6554 13.3283C16.7415 13.2414 16.8098 13.1383 16.8565 13.0247C16.9031 12.9112 16.9271 12.7895 16.9272 12.6666C16.9272 12.4184 16.8296 12.1804 16.6557 12.0048C16.4819 11.8293 16.246 11.7306 16.0001 11.7305ZM14.3198 10.9701C14.7656 10.5204 15.3701 10.2679 16.0004 10.268C16.6307 10.2682 17.2351 10.521 17.6807 10.9709C18.1263 11.4208 18.3765 12.0309 18.3764 12.667C18.3763 12.9819 18.3147 13.2938 18.1952 13.5847C18.0757 13.8757 17.9006 14.14 17.6799 14.3627C17.4591 14.5853 17.1971 14.7619 16.9087 14.8824C16.6204 15.0028 16.3113 15.0648 15.9992 15.0647C15.6871 15.0646 15.3781 15.0025 15.0898 14.8819C14.8015 14.7613 14.5396 14.5846 14.319 14.3618C14.0983 14.1391 13.9233 13.8746 13.804 13.5836C13.6846 13.2926 13.6232 12.9807 13.6233 12.6658C13.6235 12.0297 13.874 11.4197 14.3198 10.9701ZM11.3896 16.4168C11.3896 16.0129 11.714 15.6855 12.1142 15.6855H14.4735C14.8737 15.6855 15.1981 16.0129 15.1981 16.4168V21.0001C15.1981 21.404 14.8737 21.7314 14.4735 21.7314H12.1142C11.714 21.7314 11.3896 21.404 11.3896 21.0001V16.4168ZM12.8388 17.148V20.2689H13.7489V17.148H12.8388ZM16.9272 16.4168C16.9272 16.0129 17.2516 15.6855 17.6518 15.6855H20.0111C20.4113 15.6855 20.7357 16.0129 20.7357 16.4168V21.0001C20.7357 21.404 20.4113 21.7314 20.0111 21.7314H17.6518C17.2516 21.7314 16.9272 21.404 16.9272 21.0001V16.4168ZM18.3764 17.148V20.2689H19.2865V17.148H18.3764Z" fill="white"/>
</svg>
