<svg width="19" height="24" viewBox="0 0 19 24" fill="none" xmlns="http://www.w3.org/2000/svg">
<path d="M3.14339 21.4045C3.6809 21.9388 4.3261 22.1216 4.88504 22.1963C5.38013 22.2625 5.97946 22.2623 6.59199 22.2622C6.61873 22.2622 6.64549 22.2622 6.67227 22.2622L12.6917 22.2622C12.7185 22.2622 12.7452 22.2622 12.772 22.2622C13.3845 22.2623 13.9838 22.2625 14.4789 22.1963C15.0379 22.1216 15.6831 21.9388 16.2206 21.4045C16.7593 20.869 16.9448 20.224 17.0206 19.6641C17.0874 19.1702 17.0872 18.5728 17.0871 17.9647C17.0871 17.9378 17.0871 17.9109 17.0871 17.884L17.0871 5.9926C17.0871 5.96568 17.0871 5.93879 17.0871 5.91191C17.0872 5.30384 17.0874 4.70642 17.0206 4.21248C16.9448 3.65262 16.7593 3.00764 16.2206 2.4721C15.6831 1.93778 15.0379 1.75502 14.4789 1.68032C13.9838 1.61415 13.3845 1.61428 12.772 1.6144C12.7452 1.61441 12.7185 1.61441 12.6917 1.61441L6.67227 1.61441C6.64549 1.61441 6.61872 1.61441 6.59198 1.6144C5.97945 1.61428 5.38013 1.61415 4.88504 1.68032C4.3261 1.75502 3.6809 1.93778 3.14339 2.47209C2.60464 3.00764 2.41911 3.65262 2.34339 4.21248C2.27659 4.70643 2.27671 5.30384 2.27684 5.91191C2.27685 5.93879 2.27686 5.96569 2.27686 5.9926L2.27686 17.884C2.27686 17.9109 2.27685 17.9378 2.27684 17.9647C2.27671 18.5728 2.27659 19.1702 2.34339 19.6641C2.41911 20.224 2.60464 20.869 3.14339 21.4045Z" fill="url(#paint0_linear_8598_5300)" stroke="url(#paint1_linear_8598_5300)" stroke-width="3"/>
<path fill-rule="evenodd" clip-rule="evenodd" d="M3.31982 5.96017C3.31981 5.30928 3.3198 4.77509 3.37691 4.35286C3.43672 3.91058 3.56664 3.52372 3.87775 3.21446C4.18886 2.9052 4.57804 2.77605 5.02297 2.71659C5.44773 2.65982 5.98512 2.65984 6.63991 2.65985L12.7243 2.65985C13.3791 2.65984 13.9165 2.65982 14.3413 2.71659C14.7862 2.77605 15.1754 2.9052 15.4865 3.21446C15.7976 3.52372 15.9275 3.91058 15.9873 4.35286C16.0445 4.77509 16.0444 5.30928 16.0444 5.96017L16.0444 17.9162C16.0444 18.5671 16.0445 19.1013 15.9873 19.5235C15.9275 19.9658 15.7976 20.3527 15.4865 20.6619C15.1754 20.9712 14.7862 21.1003 14.3413 21.1598C13.9165 21.2166 13.3791 21.2166 12.7243 21.2166L6.63991 21.2166C5.98512 21.2166 5.44773 21.2166 5.02297 21.1598C4.57804 21.1003 4.18886 20.9712 3.87775 20.6619C3.56664 20.3527 3.43672 19.9658 3.3769 19.5235C3.3198 19.1013 3.31981 18.5671 3.31982 17.9162L3.31982 5.96017ZM4.20102 20.3406C4.62504 20.7621 5.3075 20.7621 6.67241 20.7621L12.6918 20.7621C14.0567 20.7621 14.7392 20.7621 15.1632 20.3406C15.5873 19.9191 15.5873 19.2407 15.5873 17.8839L15.5873 5.99248C15.5873 4.63569 15.5873 3.9573 15.1632 3.5358C14.7392 3.1143 14.0567 3.1143 12.6918 3.1143L6.67241 3.1143C5.3075 3.1143 4.62504 3.1143 4.20102 3.5358C3.777 3.9573 3.777 4.63569 3.777 5.99248L3.777 17.8839C3.777 19.2407 3.777 19.9191 4.20102 20.3406Z" fill="#FFECB3"/>
<path fill-rule="evenodd" clip-rule="evenodd" d="M15.5871 15.4059L3.77686 15.4059L3.77686 14.9514L15.5871 14.9514L15.5871 15.4059Z" fill="#F7A30A"/>
<path fill-rule="evenodd" clip-rule="evenodd" d="M5.81578 20.7475L5.81578 15.3223L6.27295 15.3223L6.27295 20.7475L5.81578 20.7475Z" fill="#F7A30A"/>
<path fill-rule="evenodd" clip-rule="evenodd" d="M5.83433 8.4704L5.83433 3.11426L6.2915 3.11426L6.2915 8.4704L5.83433 8.4704Z" fill="#F7A30A"/>
<path fill-rule="evenodd" clip-rule="evenodd" d="M8.15026 20.7475L8.15026 15.3223L8.60742 15.3223L8.60742 20.7475L8.15026 20.7475Z" fill="#F7A30A"/>
<path fill-rule="evenodd" clip-rule="evenodd" d="M8.11997 8.47041L8.11997 3.11426L8.57715 3.11426L8.57715 8.47041L8.11997 8.47041Z" fill="#F7A30A"/>
<path fill-rule="evenodd" clip-rule="evenodd" d="M10.4842 20.7475L10.4842 15.3223L10.9414 15.3223L10.9414 20.7475L10.4842 20.7475Z" fill="#F7A30A"/>
<path fill-rule="evenodd" clip-rule="evenodd" d="M10.4823 8.47041L10.4823 3.11426L10.9395 3.11426L10.9395 8.47041L10.4823 8.47041Z" fill="#F7A30A"/>
<path fill-rule="evenodd" clip-rule="evenodd" d="M12.9662 15.3223L12.9662 8.45776L13.4233 8.45776L13.4233 15.3223L12.9662 15.3223Z" fill="#F7A30A"/>
<path fill-rule="evenodd" clip-rule="evenodd" d="M15.5875 8.56777L5.83447 8.56777L5.83447 8.11328L15.5875 8.11328L15.5875 8.56777Z" fill="#F7A30A"/>
<defs>
<linearGradient id="paint0_linear_8598_5300" x1="3.77686" y1="11.9383" x2="15.5871" y2="11.9383" gradientUnits="userSpaceOnUse">
<stop stop-color="#F7B512"/>
<stop offset="1" stop-color="#FFDF80"/>
</linearGradient>
<linearGradient id="paint1_linear_8598_5300" x1="3.62895" y1="2.96923" x2="15.6908" y2="22.4538" gradientUnits="userSpaceOnUse">
<stop stop-color="#EAAA28"/>
<stop offset="1" stop-color="#D12421"/>
</linearGradient>
</defs>
</svg>
