<svg width="31" height="30" viewBox="0 0 31 30" fill="none" xmlns="http://www.w3.org/2000/svg">
<path d="M30.8611 10.7685C30.6676 10.2015 30.1561 9.801 29.5591 9.7545L21.0076 9.075L17.3071 0.8835C17.0656 0.345 16.5301 0 15.9406 0C15.3511 0 14.8156 0.345 14.5741 0.882L10.8736 9.075L2.32214 9.7545C1.73564 9.801 1.23014 10.1865 1.03064 10.74C0.831142 11.2935 0.972142 11.913 1.39364 12.324L7.71314 18.4845L5.47814 28.1625C5.34014 28.761 5.58164 29.3835 6.08714 29.733C6.34514 29.91 6.64214 30 6.94064 30C7.23014 30 7.52114 29.916 7.77314 29.748L15.9406 24.303L24.1081 29.748C24.6301 30.096 25.3156 30.0825 25.8256 29.712C26.3326 29.3415 26.5561 28.692 26.3836 28.089L23.6401 18.489L30.4441 12.366C30.8896 11.964 31.0531 11.337 30.8611 10.7685Z" fill="white" fill-opacity="0.5"/>
</svg>
