<svg width="71" height="71" viewBox="0 0 71 71" fill="none" xmlns="http://www.w3.org/2000/svg">
<path d="M61.7583 20.5848C61.1436 19.5865 59.9942 19.0435 58.8348 19.2131L42.2211 21.6167L31.6145 7.58534C30.9206 6.66217 29.7494 6.2355 28.6244 6.49058C27.4994 6.74567 26.6268 7.63578 26.3983 8.76509L22.8815 26.0018L6.85589 30.9989C5.75674 31.3414 4.95886 32.2959 4.81764 33.4385C4.67642 34.5811 5.21357 35.7023 6.19581 36.3043L20.9216 45.3264L20.8442 64.7629C20.8398 65.9648 21.57 67.0483 22.686 67.4965C23.2549 67.7227 23.8606 67.7659 24.4303 67.6368C24.9828 67.5115 25.5018 67.2253 25.91 66.7956L39.1407 52.8702L57.0836 59.7272C58.2303 60.1655 59.5327 59.8431 60.3457 58.9153C61.1529 57.9889 61.2984 56.6527 60.7082 55.5766L51.3185 38.4432L61.6537 23.8139C62.33 22.8539 62.3707 21.5866 61.7583 20.5848Z" fill="url(#paint0_linear_9131_215604)"/>
<path d="M61.7583 20.5848C61.1436 19.5865 59.9942 19.0435 58.8348 19.2131L42.2211 21.6167L31.6145 7.58534C30.9206 6.66217 29.7494 6.2355 28.6244 6.49058C27.4994 6.74567 26.6268 7.63578 26.3983 8.76509L22.8815 26.0018L6.85589 30.9989C5.75674 31.3414 4.95886 32.2959 4.81764 33.4385C4.67642 34.5811 5.21357 35.7023 6.19581 36.3043L20.9216 45.3264L20.8442 64.7629C20.8398 65.9648 21.57 67.0483 22.686 67.4965C23.2549 67.7227 23.8606 67.7659 24.4303 67.6368C24.9828 67.5115 25.5018 67.2253 25.91 66.7956L39.1407 52.8702L57.0836 59.7272C58.2303 60.1655 59.5327 59.8431 60.3457 58.9153C61.1529 57.9889 61.2984 56.6527 60.7082 55.5766L51.3185 38.4432L61.6537 23.8139C62.33 22.8539 62.3707 21.5866 61.7583 20.5848Z" fill="url(#paint1_linear_9131_215604)" style="mix-blend-mode:overlay"/>
<path d="M44.3798 36.228C45.4391 40.8997 42.4789 45.5527 37.768 46.6209C33.0572 47.689 28.3796 44.7678 27.3203 40.0961C26.261 35.4245 30.5398 36.5869 35.2507 35.5187C39.9616 34.4506 43.3206 31.5563 44.3798 36.228Z" fill="url(#paint2_linear_9131_215604)"/>
<mask id="mask0_9131_215604" style="mask-type:alpha" maskUnits="userSpaceOnUse" x="27" y="33" width="18" height="14">
<path d="M44.3798 36.228C45.4391 40.8997 42.4789 45.5527 37.768 46.6209C33.0572 47.689 28.3796 44.7678 27.3203 40.0961C26.261 35.4245 30.5398 36.5869 35.2507 35.5187C39.9616 34.4506 43.3206 31.5563 44.3798 36.228Z" fill="#A62F00"/>
</mask>
<g mask="url(#mask0_9131_215604)">
<path d="M42.449 33.5238C42.9987 35.948 39.9668 37.6809 35.9487 38.592C31.9306 39.5031 28.4479 39.2472 27.8982 36.8231C27.3485 34.399 30.8445 34.7129 34.8626 33.8018C38.8807 32.8908 41.8993 31.0997 42.449 33.5238Z" fill="white"/>
</g>
<path fill-rule="evenodd" clip-rule="evenodd" d="M28.11 32.907C27.0538 32.2413 25.6578 32.5578 24.992 33.614C24.4836 34.4207 23.4174 34.6624 22.6108 34.154C21.8041 33.6455 21.5624 32.5793 22.0708 31.7727C23.7536 29.1031 27.2818 28.3031 29.9514 29.9858C30.7581 30.4943 30.9998 31.5604 30.4913 32.3671C29.9828 33.1738 28.9167 33.4155 28.11 32.907Z" fill="#D4470F"/>
<path fill-rule="evenodd" clip-rule="evenodd" d="M43.9147 29.3233C42.8585 28.6575 41.4625 28.974 40.7967 30.0303C40.2883 30.8369 39.2221 31.0787 38.4155 30.5702C37.6088 30.0617 37.367 28.9956 37.8755 28.1889C39.5582 25.5193 43.0865 24.7193 45.7561 26.4021C46.5627 26.9105 46.8045 27.9767 46.296 28.7834C45.7875 29.59 44.7214 29.8318 43.9147 29.3233Z" fill="#D4470F"/>
<defs>
<linearGradient id="paint0_linear_9131_215604" x1="28.6249" y1="6.49046" x2="41.6064" y2="63.7422" gradientUnits="userSpaceOnUse">
<stop stop-color="#FCC954"/>
<stop offset="1" stop-color="#FF993B"/>
</linearGradient>
<linearGradient id="paint1_linear_9131_215604" x1="28.6249" y1="6.49046" x2="41.6064" y2="63.7422" gradientUnits="userSpaceOnUse">
<stop stop-color="white" stop-opacity="0"/>
<stop offset="1" stop-color="white" stop-opacity="0.1"/>
</linearGradient>
<linearGradient id="paint2_linear_9131_215604" x1="35.1514" y1="35.0806" x2="37.768" y2="46.6209" gradientUnits="userSpaceOnUse">
<stop stop-color="#A62F00"/>
<stop offset="1" stop-color="#D41B0F" stop-opacity="0.24"/>
</linearGradient>
</defs>
</svg>
