<svg width="20" height="15" viewBox="0 0 20 15" fill="none" xmlns="http://www.w3.org/2000/svg">
<path d="M3.01211 10.2621L3.75 11L7.25 7.5L3.75 4L3.01211 4.73789L5.25239 6.97816H0.25V8.02184H5.25239L3.01211 10.2621Z" fill="#B6BEC8"/>
<path fill-rule="evenodd" clip-rule="evenodd" d="M3.75 3.64648L7.60355 7.50004L3.75 11.3536L2.65856 10.2622L4.64883 8.27188H0V6.72819H4.64883L2.65856 4.73792L3.75 3.64648ZM3.36567 4.73792L5.85594 7.22819H0.5V7.77188H5.85594L3.36567 10.2622L3.75 10.6465L6.89645 7.50004L3.75 4.35359L3.36567 4.73792Z" fill="#B6BEC8"/>
<path d="M9.25 4C9.25 6.28 10.97 8 13.25 8C15.53 8 17.25 6.28 17.25 4C17.25 1.72 15.53 0 13.25 0C10.97 0 9.25 1.72 9.25 4ZM15.25 4C15.25 5.178 14.428 6 13.25 6C12.072 6 11.25 5.178 11.25 4C11.25 2.822 12.072 2 13.25 2C14.428 2 15.25 2.822 15.25 4ZM9.25 14C9.25 12.346 10.596 11 12.25 11H14.25C15.904 11 17.25 12.346 17.25 14V15H19.25V14C19.25 11.243 17.007 9 14.25 9H12.25C9.493 9 7.25 11.243 7.25 14V15H9.25V14Z" fill="#B6BEC8"/>
</svg>
